<svg xmlns="http://www.w3.org/2000/svg" viewBox="0 0 54.75 61.02"><defs><style>.cls-1{fill:none;stroke:#fff;stroke-linecap:round;stroke-linejoin:round;stroke-width:0.75px;}.cls-2{fill:#fff;}</style></defs><title>categories</title><g id="Layer_2" data-name="Layer 2"><g id="Layer_1-2" data-name="Layer 1"><path class="cls-1" d="M32.57,12.45l-1.44,3.62c1.82.25,3.69-.18,5.34,1A48.39,48.39,0,0,0,42,20.16c3.07-2.89,1.87-8.43-2.2-10.55a1.82,1.82,0,0,0-1-.17c-2.1.26-4.39.12-5.55,2.5-.09.18-.42.26-.62.37C28.39,9.54,23.7,9.15,20.5,13"/><path class="cls-1" d="M12.71,20.46l.14.5c2.26-2.75,5.52-3.49,8.69-4.4.09-3.06-2-4.49-4.25-5.38-2-.79-4.25-.85-6,.93-1.6,1.62-2.34,3.46-1.51,5.71.5,1.36,1,2.71,1.64,4.32L12.78,21"/><path class="cls-1" d="M54.38,10.1,47,11.44"/><path class="cls-1" d="M54,16.64H48"/><path class="cls-1" d="M6.08,20.5.71,21"/><path class="cls-1" d="M48.17,2.72c-.82,1.5-2.6,2.41-2.68,4.36"/><path class="cls-1" d="M16.47,1.72l-.16,4.36"/><path class="cls-1" d="M7.59,2.05l2.85,3.86"/><path class="cls-1" d="M47,22.34c1.37.57,2.89,1,3,2.85"/><path class="cls-1" d="M4.06,13l-3.68-.5"/><path class="cls-1" d="M39.78,9.43l.15-1.7c-1.33,0-1.5.71-1.49,1.53"/><path class="cls-1" d="M38.61.38A7.36,7.36,0,0,0,38,1.89a9.39,9.39,0,0,0,0,1.84"/><path class="cls-1" d="M21.84,4.06l-1,3"/><path class="cls-1" d="M12,11.28,10.89,10c-1.41.86-.54,1.46,0,2.08"/><path class="cls-1" d="M14.75,54a10.48,10.48,0,0,1-.38,2.66,17.16,17.16,0,0,1-1.71,2.66c.58,1.72,2,1,3.15,1.26.91-1.45.92-3.45,2.63-4.4"/><path class="cls-1" d="M37.39,56c.61,1.06,1.21,2.13,1.85,3.19.3.5.67,1,1,1.44,2.33-1.27,2.36-1.37,1.35-3.62-.4-.89-.78-1.79-1.17-2.68"/><path class="cls-1" d="M9.45,46.62c1.27,3,3.59,5.07,6.2,6.88,3.53,2.46,7.64,3.22,11.74,3.44a20.79,20.79,0,0,0,12.73-3.46,15.31,15.31,0,0,0,4.86-6,24.24,24.24,0,0,0,2.33-13.4,14.67,14.67,0,0,0-5.37-10,25.54,25.54,0,0,0-6-3.84A18.66,18.66,0,0,0,23.85,19c-5.8,1.3-10.34,4.12-13.54,9a18.31,18.31,0,0,0-2.5,14.39,24.1,24.1,0,0,0,1.64,4"/><path class="cls-1" d="M14.1,25.18l.34-.24A1.54,1.54,0,0,0,15.71,26"/><path class="cls-1" d="M16.7,23.32a3,3,0,0,0,1.12,1.24"/><path class="cls-1" d="M19.93,22.33l.62,1.11"/><path class="cls-1" d="M22.91,21.58V22.7"/><path class="cls-1" d="M24.15,21.21l.12.87"/><path class="cls-1" d="M28.24,20.09l-.37,1.49"/><path class="cls-1" d="M30.85,20.59a1.73,1.73,0,0,0-.38,1.12"/><path class="cls-1" d="M33.1,21,33,22"/><path class="cls-1" d="M34.2,22l2.23-.87"/><path class="cls-1" d="M36.18,22.7l1.61-.62"/><path class="cls-1" d="M37.92,23.32,39.16,23"/><path class="cls-1" d="M38.79,24.81l2.11-.38"/><path class="cls-1" d="M42.14,29.52l1.73-.62"/><path class="cls-1" d="M43.75,32.25l1.74-.5"/><path class="cls-1" d="M45.28,34.68l1.1,1"/><path class="cls-1" d="M44.12,38a2.93,2.93,0,0,1,1,2.11"/><path class="cls-1" d="M43.38,46a2.67,2.67,0,0,0,1,1.37"/><path class="cls-1" d="M40.75,47.91a2.49,2.49,0,0,1,.88,2"/><path class="cls-1" d="M37.3,50.73,38,52.22"/><path class="cls-1" d="M27.42,55.21l.1-.75"/><path class="cls-1" d="M21.29,55a3,3,0,0,1,1-1.24"/><path class="cls-1" d="M21.29,53.15c.23,0,.23-.43,0-.44L18.91,54.1l.26-.4"/><path class="cls-1" d="M17.94,52l-3,1.23.85-.61"/><path class="cls-1" d="M13.45,50.93l2-1.21"/><path class="cls-1" d="M10.73,45.37l1.39-1"/><path class="cls-1" d="M9.11,42.47,11,41.9"/><path class="cls-1" d="M7.88,39.85l-.37-.25a3.77,3.77,0,0,1,2.37.47"/><path class="cls-1" d="M8.3,37.92,8,37.56A4,4,0,0,0,10,38"/><path class="cls-1" d="M8,34.8a4,4,0,0,1,2.1.44"/><path class="cls-1" d="M9.89,33.45l2,.58"/><path class="cls-1" d="M10.88,31.61l1.24.63"/><path class="cls-1" d="M11.35,28.67l1.11,1.24"/><path class="cls-1" d="M12.7,26.59l1.74,1.32-.22-.37"/><path class="cls-1" d="M21,21.07l.24-.23A1.43,1.43,0,0,0,22,22"/><path class="cls-1" d="M43.14,43.65a5.56,5.56,0,0,1,1.8,2.27"/><path class="cls-1" d="M39.3,55.46l-1,1.37"/><path class="cls-1" d="M40.78,57.07l-.62,1.48c.11.51.76.8.5,1.25"/><path class="cls-1" d="M14.1,58.67l.74,1.12"/><path class="cls-1" d="M15,57.31l.89.85,0-.35"/><path class="cls-1" d="M15.59,55.32A2,2,0,0,1,17.2,56"/><path class="cls-1" d="M17,54.41a1.74,1.74,0,0,1,.84,1l.25-.21"/><path class="cls-1" d="M24.15,54.08l-1,1.62"/><path class="cls-1" d="M27.37,54.46a3.11,3.11,0,0,1-.49,1.73"/><path class="cls-1" d="M30.23,54.58l.49,1.49"/><path class="cls-1" d="M33.88,53.29a11.05,11.05,0,0,0,2,1.75"/><path class="cls-1" d="M36.45,52.3A3.06,3.06,0,0,1,38,53.63"/><path class="cls-1" d="M39.67,50.85l1,1.36"/><path class="cls-1" d="M42,48.58a3.46,3.46,0,0,1,1.58,1.3"/><path class="cls-1" d="M10.22,16.56l2.14-1.21"/><path class="cls-1" d="M10.22,15.35l2.37-1.28-.32.07"/><path class="cls-1" d="M11.25,18.7a21.19,21.19,0,0,1,3.16-2.15"/><path class="cls-1" d="M11.07,17.5l1.4-.82"/><path class="cls-1" d="M13.56,18.78l2.7-1.86"/><path class="cls-1" d="M10.87,13.39l2.7-.56"/><path class="cls-1" d="M9.29,16.56l2.79-.75"/><path class="cls-1" d="M11,29.56l1.94,1"/><path class="cls-1" d="M9.66,31a1.44,1.44,0,0,1,.84.56"/><path class="cls-1" d="M8.92,32.75a2.7,2.7,0,0,0,1.86.55"/><path class="cls-1" d="M12.08,28a4.48,4.48,0,0,0,1.86.84"/><path class="cls-1" d="M18.61,22.41,19,23.53"/><path class="cls-1" d="M24.82,19.82A1.79,1.79,0,0,1,25,21.5"/><path class="cls-1" d="M30.61,19.45l-1.58,2"/><path class="cls-1" d="M26.05,20.27a2,2,0,0,1,.36,1.22"/><path class="cls-1" d="M40.18,26.05l2.33-.56"/><path class="cls-1" d="M42.24,27.84l2.69-.68"/><path class="cls-1" d="M11.26,46.9l-.19.42,2-.9"/><path class="cls-1" d="M11.43,48.19v.25a9.65,9.65,0,0,0,2.51-1.09"/><path class="cls-1" d="M13.54,50.63l2.61-1.37"/><path class="cls-1" d="M9.33,44.88a5.37,5.37,0,0,1,2.75-1.3"/><path class="cls-1" d="M40.77,46.32l2,1.44"/><path class="cls-1" d="M44.92,36.48a2.44,2.44,0,0,0,2,1"/><path class="cls-1" d="M44.74,40.82l2,.21"/><path class="cls-1" d="M45.13,38.29l2.19.6"/><path class="cls-1" d="M42.5,31.41,46,30.13"/><path class="cls-1" d="M32.39,20.48l.13-.28a5.83,5.83,0,0,0-.61,2.59"/><path class="cls-1" d="M25.74,53.41l-.42,2.42"/><path class="cls-1" d="M28.34,54.5l.4,1.14"/><path class="cls-1" d="M32.29,53.6A1.26,1.26,0,0,0,32.72,55"/><path class="cls-1" d="M39.62,49a2.07,2.07,0,0,0,1.12,1"/><path class="cls-1" d="M17.84,53.2,20.16,52"/><path class="cls-1" d="M15.66,50.81a4.35,4.35,0,0,1,1.91-.65"/><path class="cls-1" d="M9,40.93l2.14-.26"/><path class="cls-1" d="M37.3,23.72l-.65.37"/><path class="cls-1" d="M44,42.67a4.86,4.86,0,0,0,1.42,1.47"/><path class="cls-1" d="M44.55,33.56l2-.44"/><path class="cls-1" d="M10,36.48l-1.39-.75"/><path class="cls-1" d="M14.73,24.12a1.36,1.36,0,0,0,.62.61"/><path class="cls-1" d="M32.3,14.63a16.59,16.59,0,0,1,4.45.09"/><path class="cls-1" d="M32.71,13.44a21.09,21.09,0,0,1,6.37.84"/><path class="cls-1" d="M34.5,12l-.37,0,2.75.57"/><path class="cls-1" d="M35.44,11l3.74,1"/><path class="cls-1" d="M37.21,10.39l2,.52"/><path class="cls-1" d="M31.87,15.6c1.53,0,3.06,0,4.59.08"/><path class="cls-1" d="M11.17,20.32a16.35,16.35,0,0,1,2.49-1.21"/><path class="cls-1" d="M27.43,22.51c7.93-.19,14.19,5.25,15.87,12.93A12.39,12.39,0,0,1,42,43.31c-1.53,3.22-3.43,6.14-6.56,8a13.46,13.46,0,0,1-10.38,1.34c-4.83-1.14-9-3.4-11.74-7.7A14.59,14.59,0,0,1,15,27.69c3.1-3.55,7.11-4.91,11.59-5.35"/><path class="cls-1" d="M14.64,27.35a1.33,1.33,0,0,1-.75-.94"/><path class="cls-2" d="M18.9,45.49c0-.43.06-.87.06-1.3s-.08-.87-.08-1.3.25-.87.25-1.3,0-.87,0-1.31-.22-.86-.22-1.3.06-.87.06-1.3,0-.87,0-1.3,0-.89,0-1.32a1.1,1.1,0,0,1,1.23-.73c.51,0,1,0,1.54,0s1,.07,1.55.07a1.07,1.07,0,0,1,.9.31c.22.26.37.58.59.84l.63.8a.34.34,0,0,0,.3.13h1.19c.4,0,.79.08,1.19.08h1.19c.4,0,.8-.12,1.19-.12s.8.08,1.2.08.79-.11,1.19-.11a1.05,1.05,0,0,1,1,1c0,.45-.14.89-.14,1.33s-.11.89-.11,1.33.15.88.15,1.33.06.88.06,1.33-.23.88-.23,1.32,0,.89,0,1.33c0,.07.17.15.16.22-.09.43-.49.54-1,.54s-.85.18-1.27.18-.85-.16-1.27-.16-.85.27-1.27.27-.85-.12-1.27-.12l-1.27,0c-.42,0-.84-.19-1.27-.19H23.9c-.42,0-.84.17-1.27.17s-.9-.14-1.34-.14-.9,0-1.35,0a.74.74,0,0,1-.83-.62S18.91,45.51,18.9,45.49Z"/><path class="cls-2" d="M36.36,41.27c-.09.16.06.43,0,.56s-.34.12-.51.23a2.34,2.34,0,0,0-.07-.32c0-.43,0-.86,0-1.29s.2-.86.2-1.29-.14-.86-.14-1.29,0-.86,0-1.29-.06-.86-.06-1.29a1.42,1.42,0,0,0-.28-1,1.4,1.4,0,0,0-1.22-.56H32.82c-.45,0-.9-.18-1.35-.18l-1.36,0c-.45,0-.9.11-1.36.11s-.9-.16-1.35-.16c-.15,0-.2.07-.29,0-.36-.44-.76-.85-1.12-1.3a1.72,1.72,0,0,0-1.38-.66c-.43,0-.86,0-1.29,0s-.86.15-1.29.15c-.06,0-.23-.06-.33-.06,0-.26.1-.54.14-.77a.77.77,0,0,1,.78-.58c.4,0,.79.05,1.18.05s.79-.12,1.18-.12.78-.11,1.18-.11a1,1,0,0,1,.69.42l.66.78.63.8c.11.13.18.1.36.1.47,0,.94.25,1.4.25s.94-.24,1.41-.25.93.1,1.4.1.94,0,1.4,0,.94.11,1.41.11a.85.85,0,0,1,1,.65s.12,0,.13.05c0,.46-.15.93-.15,1.39s0,.92,0,1.38.07.92.07,1.38,0,.92,0,1.39.08.92.08,1.38S36.36,40.81,36.36,41.27Z"/><path class="cls-2" d="M34.36,44.09c0-.48,0-1,0-1.41s-.05-.88-.05-1.32.13-.87.13-1.31.1-.88.1-1.32-.26-.87-.26-1.31a1.48,1.48,0,0,0-.41-1.16,1.59,1.59,0,0,0-1.17-.5c-.45,0-.89.1-1.34.1s-.9-.19-1.35-.19l-1.34,0c-.45,0-.9.13-1.35.13s-.89-.12-1.34-.12c-.13,0-.1-.1-.18-.2-.38-.46-.94-.77-1.32-1.23a1.5,1.5,0,0,0-1.17-.67c-.45,0-.89.13-1.34.13s-.89-.09-1.34-.09l-.3,0a5.55,5.55,0,0,1,.09-.74.89.89,0,0,1,.85-.71c.39,0,.77.06,1.16.06s.77-.12,1.15-.12.77.23,1.16.23a.73.73,0,0,1,.66.25c.22.27.49.5.71.77s.52.48.74.75c.07.1.07.3.19.3.47,0,.94-.1,1.41-.1s.94-.11,1.41-.11.95.2,1.42.2.94-.09,1.41-.09.94-.14,1.41-.14a1.08,1.08,0,0,1,1.06,1.14c0,.43,0,.87,0,1.31s.09.87.09,1.3-.05.88-.05,1.31.06.87.07,1.31-.28.87-.28,1.31.07.87.07,1.31,0,.72-.36.89C34.61,44.12,34.44,44.06,34.36,44.09Z"/></g></g></svg>