<svg xmlns="http://www.w3.org/2000/svg" viewBox="0 0 54.75 61.02"><defs><style>.cls-1{fill:#fff;}.cls-2{fill:red;}.cls-3{fill:none;stroke:#fff;stroke-linecap:round;stroke-linejoin:round;stroke-width:0.75px;}</style></defs><title>events</title><g id="Layer_2" data-name="Layer 2"><g id="Layer_1-2" data-name="Layer 1"><path class="cls-1" d="M34.41,34.12c0,.15-.11.35-.11.47s.16.53.16.8,0,.54,0,.81,0,.53,0,.8.1.54.1.8v.81c0,.27-.14.53-.14.8s.08.54.08.81,0,.53,0,.8-.05.54-.05.81-.06.53-.06.8.19.54.19.8-.2.54-.2.81.12.61,0,.74-.4.13-.74.13l-.82,0c-.28,0-.55,0-.83,0S31.32,45,31,45s-.55,0-.82,0-.55.26-.82.26l-.83,0c-.27,0-.54-.16-.82-.16s-.55.14-.82.14-.55-.21-.82-.21-.55.09-.83.09-.54.06-.82.06h-.82c-.27,0-.55,0-.82,0H22c-.27,0-.54-.06-.82-.06a.81.81,0,0,1-.62-.17.87.87,0,0,1-.29-.62c0-.27.06-.54.06-.81s-.05-.55-.05-.82.19-.54.19-.81-.12-.55-.12-.82,0-.54,0-.81,0-.55,0-.82,0-.54,0-.81,0-.55,0-.82.15-.54.15-.81.06-.55.06-.82-.22-.54-.22-.81.07-.55.07-.82c0-.1,0-.28,0-.41.28,0,.59,0,.86,0s.55.11.83.11.55.09.82.09.55-.07.82-.07l.83,0h.82c.27,0,.55,0,.82,0H27c.28,0,.55-.11.82-.11s.55.13.82.13.55-.14.83-.14.55.17.82.17.55-.21.82-.21h.83c.27,0,.55.15.82.15h.82C33.82,34.24,34.14,34.12,34.41,34.12ZM24.7,43.84c.26,0,.44.13.69.13s.5-.17.74-.17.5,0,.75,0c.06,0,.16-.05.17-.12,0-.34-.1-.67-.1-1s0-.67,0-1c0-.07,0-.22-.08-.23-.34,0-.67.08-1,.08s-.66-.06-1-.05c-.08,0-.26.1-.26.16,0,.25-.07.5-.07.75s.19.5.19.76S24.7,43.58,24.7,43.84Zm5.35,0c0-.25.13-.44.13-.69s-.16-.5-.17-.75,0-.5,0-.75a.18.18,0,0,0-.16-.15c-.32,0-.64.09-1,.09h-1c-.21,0-.28,0-.27.16,0,.4.08.8.08,1.19s-.06.63-.06,1c.28,0,.54,0,.81,0s.54.06.81.06S29.78,43.82,30.05,43.82Zm-3.06-3c0-.27.13-.48.13-.75s-.16-.53-.16-.8,0-.48,0-.76c-.25,0-.45,0-.7,0s-.51.1-.76.11H24.8c-.06,0-.17,0-.17.14,0,.28.07.55.07.83s-.06.55-.05.83,0,.35,0,.52c.27,0,.56.06.82.06s.53-.19.8-.19S26.72,40.78,27,40.78Zm.75-2.28c0,.25-.13.44-.13.68s.16.5.16.74,0,.49,0,.73.05.19.19.19.42-.11.63-.11h.63c.29,0,.6.14.9.14,0-.27-.07-.56-.07-.82s0-.54,0-.8,0-.57,0-.84c-.27,0-.57-.07-.83-.07s-.54.19-.81.19S28,38.5,27.74,38.5Zm-3-3.06c0,.27-.13.48-.13.75s.16.53.16.8,0,.48,0,.75c.27,0,.49,0,.76,0s.53-.1.79-.1.46,0,.73,0c0-.25.1-.41.1-.65s-.08-.49-.08-.74,0-.49,0-.73c0-.07-.12-.23-.19-.23-.24,0-.49-.07-.73-.07s-.49.19-.74.19S25,35.44,24.72,35.44Zm3,0c0,.26-.13.45-.13.7s.16.5.16.75,0,.51,0,.76a.17.17,0,0,0,.15.14c.33,0,.66-.09,1-.09l1,0c.07,0,.23,0,.23-.08,0-.33-.07-.67-.07-1s.05-.67.05-1c0-.06-.12-.23-.19-.23-.24,0-.49-.07-.74-.07s-.49.19-.74.19S28,35.44,27.74,35.44Zm-6.07,8.4c.25,0,.45.13.69.13s.51-.17.75-.17.5,0,.75,0c.05,0,.14,0,.14-.1,0-.23-.09-.46-.09-.69v-.68c0-.23.14-.46.13-.68,0-.07-.14-.13-.21-.13-.33,0-.67-.07-1-.07s-.67-.05-1,0c-.07,0-.3.14-.3.19,0,.25.19.51.19.76s-.2.51-.2.76S21.67,43.58,21.67,43.84Zm9.11-2.3c0,.25-.13.44-.13.68s.16.5.16.74,0,.49,0,.73a.2.2,0,0,0,.15.18c.34,0,.68-.09,1-.09l1.08,0c0-.28.1-.45.1-.71s-.09-.54-.09-.81.06-.53.06-.8c-.27,0-.53,0-.8,0s-.53-.07-.8-.07S31.05,41.54,30.78,41.54Zm-9.09-3.81c.27,0,.47.13.74.13s.53-.17.8-.17.48,0,.75,0c0-.25,0-.44,0-.69s-.1-.49-.1-.73,0-.49,0-.73c0-.07,0-.21-.13-.21-.26,0-.52.07-.77.07s-.52,0-.78,0l-.62,0c0,.27-.07.56-.07.82s.2.54.2.81S21.69,37.46,21.69,37.73Zm11.37-2.29c-.26,0-.46-.13-.71-.13s-.51.17-.77.17c-.43,0-.59,0-.7.06s-.14.27-.14.7c0,.26.1.52.1.77s0,.43,0,.7c.27,0,.45.1.72.1s.53-.08.8-.08.52.06.79.06c0-.27,0-.53,0-.8s.07-.53.07-.8S33.06,35.71,33.06,35.44Zm-11.37,3c0,.27-.13.49-.13.76s.17.53.17.8,0,.49,0,.76c.25,0,.44,0,.68,0s.49-.1.73-.11h.73c.07,0,.21,0,.21-.06,0-.34-.07-.68-.07-1s.05-.68.05-1c0-.07-.13-.25-.2-.25-.24,0-.49-.07-.73-.07s-.48.19-.73.19S21.94,38.48,21.69,38.48Zm11.38,0c-.25,0-.44-.13-.69-.13s-.5.17-.75.17-.49,0-.74,0a.19.19,0,0,0-.15.17c0,.32.1.64.1,1v1c0,.21,0,.28.15.28s.45-.09.68-.09.45.06.68.06l.81,0c0-.27.08-.57.08-.84s-.2-.54-.2-.81S33.07,38.76,33.07,38.48Z"/><path class="cls-2" d="M23.4,29.86c.41,0,.81.06,1.23.06,0,.22,0,.45,0,.67s0,.44,0,.66c0,.52-.06.38.46.38.25,0,.5.25.75.25h.75c.25,0,.5-.12.75-.12s.5-.12.75-.12.5,0,.75,0,.71,0,1.1,0c0-.4,0-.73,0-1.14,0-.18.07-.48.07-.69.41,0,.79.19,1.19.19,0,.25,0,.42,0,.67s.13.49.12.73,0,.3.27.29.46.11.68.11.46.06.69.06.46-.2.69-.2a.61.61,0,0,1,.59.63c0,.39.13.86.13,1.27-.28,0-.65-.09-.93-.09s-.54,0-.82,0-.54.11-.82.11-.54-.2-.82-.2-.54.13-.82.13-.54-.17-.81-.17l-.82,0c-.28,0-.55,0-.82,0s-.55.25-.82.25-.54-.2-.82-.2-.54,0-.82,0-.54,0-.81,0H23.7c-.28,0-.55-.12-.82-.12h-.82c-.28,0-.55.22-.82.22l-.89,0c0-.21.1-.5.1-.71s0-.42,0-.62.24-.46.59-.46l.69,0c.23,0,.47-.15.7-.15s.46.19.69.2.32-.16.31-.41,0-.5,0-.76S23.4,30.12,23.4,29.86Z"/><path class="cls-3" d="M32.57,12.45l-1.44,3.62c1.82.25,3.69-.18,5.34,1A48.39,48.39,0,0,0,42,20.16c3.07-2.89,1.87-8.43-2.2-10.55a1.82,1.82,0,0,0-1-.17c-2.1.26-4.39.12-5.55,2.5-.09.18-.42.26-.62.37C28.39,9.54,23.7,9.15,20.5,13"/><path class="cls-3" d="M12.71,20.46l.14.5c2.26-2.75,5.52-3.49,8.69-4.4.09-3.06-2-4.49-4.25-5.38-2-.79-4.25-.85-6,.93-1.6,1.62-2.34,3.46-1.51,5.71.5,1.36,1,2.71,1.64,4.32L12.78,21"/><path class="cls-3" d="M54.38,10.1,47,11.44"/><path class="cls-3" d="M54,16.64H48"/><path class="cls-3" d="M6.08,20.5.71,21"/><path class="cls-3" d="M48.17,2.72c-.82,1.5-2.6,2.41-2.68,4.36"/><path class="cls-3" d="M16.47,1.72l-.16,4.36"/><path class="cls-3" d="M7.59,2.05l2.85,3.86"/><path class="cls-3" d="M47,22.34c1.37.57,2.89,1,3,2.85"/><path class="cls-3" d="M4.06,13l-3.68-.5"/><path class="cls-3" d="M39.78,9.43l.15-1.7c-1.33,0-1.5.71-1.49,1.53"/><path class="cls-3" d="M38.61.38A7.36,7.36,0,0,0,38,1.89a9.39,9.39,0,0,0,0,1.84"/><path class="cls-3" d="M21.84,4.06l-1,3"/><path class="cls-3" d="M12,11.28,10.89,10c-1.41.86-.54,1.46,0,2.08"/><path class="cls-3" d="M14.75,54a10.48,10.48,0,0,1-.38,2.66,17.16,17.16,0,0,1-1.71,2.66c.58,1.72,2,1,3.15,1.26.91-1.45.92-3.45,2.63-4.4"/><path class="cls-3" d="M37.39,56c.61,1.06,1.21,2.13,1.85,3.19.3.5.67,1,1,1.44,2.33-1.27,2.36-1.37,1.35-3.62-.4-.89-.78-1.79-1.17-2.68"/><path class="cls-3" d="M9.45,46.62c1.27,3,3.59,5.07,6.2,6.88,3.53,2.46,7.64,3.22,11.74,3.44a20.79,20.79,0,0,0,12.73-3.46,15.31,15.31,0,0,0,4.86-6,24.24,24.24,0,0,0,2.33-13.4,14.67,14.67,0,0,0-5.37-10,25.54,25.54,0,0,0-6-3.84A18.66,18.66,0,0,0,23.85,19c-5.8,1.3-10.34,4.12-13.54,9a18.31,18.31,0,0,0-2.5,14.39,24.1,24.1,0,0,0,1.64,4"/><path class="cls-3" d="M14.1,25.18l.34-.24A1.54,1.54,0,0,0,15.71,26"/><path class="cls-3" d="M16.7,23.32a3,3,0,0,0,1.12,1.24"/><path class="cls-3" d="M19.93,22.33l.62,1.11"/><path class="cls-3" d="M22.91,21.58V22.7"/><path class="cls-3" d="M24.15,21.21l.12.87"/><path class="cls-3" d="M28.24,20.09l-.37,1.49"/><path class="cls-3" d="M30.85,20.59a1.73,1.73,0,0,0-.38,1.12"/><path class="cls-3" d="M33.1,21,33,22"/><path class="cls-3" d="M34.2,22l2.23-.87"/><path class="cls-3" d="M36.18,22.7l1.61-.62"/><path class="cls-3" d="M37.92,23.32,39.16,23"/><path class="cls-3" d="M38.79,24.81l2.11-.38"/><path class="cls-3" d="M42.14,29.52l1.73-.62"/><path class="cls-3" d="M43.75,32.25l1.74-.5"/><path class="cls-3" d="M45.28,34.68l1.1,1"/><path class="cls-3" d="M44.12,38a2.93,2.93,0,0,1,1,2.11"/><path class="cls-3" d="M43.38,46a2.67,2.67,0,0,0,1,1.37"/><path class="cls-3" d="M40.75,47.91a2.49,2.49,0,0,1,.88,2"/><path class="cls-3" d="M37.3,50.73,38,52.22"/><path class="cls-3" d="M27.42,55.21l.1-.75"/><path class="cls-3" d="M21.29,55a3,3,0,0,1,1-1.24"/><path class="cls-3" d="M21.29,53.15c.23,0,.23-.43,0-.44L18.91,54.1l.26-.4"/><path class="cls-3" d="M17.94,52l-3,1.23.85-.61"/><path class="cls-3" d="M13.45,50.93l2-1.21"/><path class="cls-3" d="M10.73,45.37l1.39-1"/><path class="cls-3" d="M9.11,42.47,11,41.9"/><path class="cls-3" d="M7.88,39.85l-.37-.25a3.77,3.77,0,0,1,2.37.47"/><path class="cls-3" d="M8.3,37.92,8,37.56A4,4,0,0,0,10,38"/><path class="cls-3" d="M8,34.8a4,4,0,0,1,2.1.44"/><path class="cls-3" d="M9.89,33.45l2,.58"/><path class="cls-3" d="M10.88,31.61l1.24.63"/><path class="cls-3" d="M11.35,28.67l1.11,1.24"/><path class="cls-3" d="M12.7,26.59l1.74,1.32-.22-.37"/><path class="cls-3" d="M21,21.07l.24-.23A1.43,1.43,0,0,0,22,22"/><path class="cls-3" d="M43.14,43.65a5.56,5.56,0,0,1,1.8,2.27"/><path class="cls-3" d="M39.3,55.46l-1,1.37"/><path class="cls-3" d="M40.78,57.07l-.62,1.48c.11.51.76.8.5,1.25"/><path class="cls-3" d="M14.1,58.67l.74,1.12"/><path class="cls-3" d="M15,57.31l.89.85,0-.35"/><path class="cls-3" d="M15.59,55.32A2,2,0,0,1,17.2,56"/><path class="cls-3" d="M17,54.41a1.74,1.74,0,0,1,.84,1l.25-.21"/><path class="cls-3" d="M24.15,54.08l-1,1.62"/><path class="cls-3" d="M27.37,54.46a3.11,3.11,0,0,1-.49,1.73"/><path class="cls-3" d="M30.23,54.58l.49,1.49"/><path class="cls-3" d="M33.88,53.29a11.05,11.05,0,0,0,2,1.75"/><path class="cls-3" d="M36.45,52.3A3.06,3.06,0,0,1,38,53.63"/><path class="cls-3" d="M39.67,50.85l1,1.36"/><path class="cls-3" d="M42,48.58a3.46,3.46,0,0,1,1.58,1.3"/><path class="cls-3" d="M10.22,16.56l2.14-1.21"/><path class="cls-3" d="M10.22,15.35l2.37-1.28-.32.07"/><path class="cls-3" d="M11.25,18.7a21.19,21.19,0,0,1,3.16-2.15"/><path class="cls-3" d="M11.07,17.5l1.4-.82"/><path class="cls-3" d="M13.56,18.78l2.7-1.86"/><path class="cls-3" d="M10.87,13.39l2.7-.56"/><path class="cls-3" d="M9.29,16.56l2.79-.75"/><path class="cls-3" d="M11,29.56l1.94,1"/><path class="cls-3" d="M9.66,31a1.44,1.44,0,0,1,.84.56"/><path class="cls-3" d="M8.92,32.75a2.7,2.7,0,0,0,1.86.55"/><path class="cls-3" d="M12.08,28a4.48,4.48,0,0,0,1.86.84"/><path class="cls-3" d="M18.61,22.41,19,23.53"/><path class="cls-3" d="M24.82,19.82A1.79,1.79,0,0,1,25,21.5"/><path class="cls-3" d="M30.61,19.45l-1.58,2"/><path class="cls-3" d="M26.05,20.27a2,2,0,0,1,.36,1.22"/><path class="cls-3" d="M40.18,26.05l2.33-.56"/><path class="cls-3" d="M42.24,27.84l2.69-.68"/><path class="cls-3" d="M11.26,46.9l-.19.42,2-.9"/><path class="cls-3" d="M11.43,48.19v.25a9.65,9.65,0,0,0,2.51-1.09"/><path class="cls-3" d="M13.54,50.63l2.61-1.37"/><path class="cls-3" d="M9.33,44.88a5.37,5.37,0,0,1,2.75-1.3"/><path class="cls-3" d="M40.77,46.32l2,1.44"/><path class="cls-3" d="M44.92,36.48a2.44,2.44,0,0,0,2,1"/><path class="cls-3" d="M44.74,40.82l2,.21"/><path class="cls-3" d="M45.13,38.29l2.19.6"/><path class="cls-3" d="M42.5,31.41,46,30.13"/><path class="cls-3" d="M32.39,20.48l.13-.28a5.83,5.83,0,0,0-.61,2.59"/><path class="cls-3" d="M25.74,53.41l-.42,2.42"/><path class="cls-3" d="M28.34,54.5l.4,1.14"/><path class="cls-3" d="M32.29,53.6A1.26,1.26,0,0,0,32.72,55"/><path class="cls-3" d="M39.62,49a2.07,2.07,0,0,0,1.12,1"/><path class="cls-3" d="M17.84,53.2,20.16,52"/><path class="cls-3" d="M15.66,50.81a4.35,4.35,0,0,1,1.91-.65"/><path class="cls-3" d="M9,40.93l2.14-.26"/><path class="cls-3" d="M37.3,23.72l-.65.37"/><path class="cls-3" d="M44,42.67a4.86,4.86,0,0,0,1.42,1.47"/><path class="cls-3" d="M44.55,33.56l2-.44"/><path class="cls-3" d="M10,36.48l-1.39-.75"/><path class="cls-3" d="M14.73,24.12a1.36,1.36,0,0,0,.62.61"/><path class="cls-3" d="M32.3,14.63a16.59,16.59,0,0,1,4.45.09"/><path class="cls-3" d="M32.71,13.44a21.09,21.09,0,0,1,6.37.84"/><path class="cls-3" d="M34.5,12l-.37,0,2.75.57"/><path class="cls-3" d="M35.44,11l3.74,1"/><path class="cls-3" d="M37.21,10.39l2,.52"/><path class="cls-3" d="M31.87,15.6c1.53,0,3.06,0,4.59.08"/><path class="cls-3" d="M11.17,20.32a16.35,16.35,0,0,1,2.49-1.21"/><path class="cls-3" d="M27.43,22.51c7.93-.19,14.19,5.25,15.87,12.93A12.39,12.39,0,0,1,42,43.31c-1.53,3.22-3.43,6.14-6.56,8a13.46,13.46,0,0,1-10.38,1.34c-4.83-1.14-9-3.4-11.74-7.7A14.59,14.59,0,0,1,15,27.69c3.1-3.55,7.11-4.91,11.59-5.35"/><path class="cls-3" d="M14.64,27.35a1.33,1.33,0,0,1-.75-.94"/></g></g></svg>