<svg xmlns="http://www.w3.org/2000/svg" xmlns:xlink="http://www.w3.org/1999/xlink" viewBox="0 0 190.55 90.5"><defs><style>.cls-1,.cls-10,.cls-12,.cls-8,.cls-9{fill:none;}.cls-1,.cls-10,.cls-14,.cls-8,.cls-9{stroke:#000;}.cls-1,.cls-14{stroke-width:0.25px;}.cls-2{fill:#333;}.cls-3{font-size:24.24px;fill:#666;font-family:Spirax-Regular, Spirax;}.cls-4{letter-spacing:-0.04em;}.cls-5{letter-spacing:-0.04em;}.cls-6{letter-spacing:-0.06em;}.cls-7{letter-spacing:0em;}.cls-10,.cls-8,.cls-9{stroke-linecap:round;stroke-linejoin:round;}.cls-9{stroke-width:2px;}.cls-10{stroke-width:0.75px;}.cls-11{clip-path:url(#clip-path);}.cls-13{fill:url(#linear-gradient);}.cls-15{clip-path:url(#clip-path-2);}.cls-16{font-size:22.73px;fill:#ff8017;font-family:ClickerScript-Regular, Clicker Script;}</style><clipPath id="clip-path"><path id="_Compound_Clipping_Path_" data-name="&lt;Compound Clipping Path&gt;" class="cls-1" d="M85.32,47.63a6.84,6.84,0,0,1-2.84-3,10.71,10.71,0,0,1-1-4.77V24.74h3.32V40a5.68,5.68,0,0,0,1.3,4,5.5,5.5,0,0,0,7.38,0,5.64,5.64,0,0,0,1.32-4V24.74h3.32V39.85a10.71,10.71,0,0,1-1,4.77,6.81,6.81,0,0,1-2.85,3,10.35,10.35,0,0,1-9,0Z"/></clipPath><linearGradient id="linear-gradient" x1="38.88" y1="35.22" x2="41.66" y2="35.22" gradientUnits="userSpaceOnUse"><stop offset="0" stop-color="#fff"/><stop offset="1"/></linearGradient><clipPath id="clip-path-2"><polygon id="_Clipping_Path_" data-name="&lt;Clipping Path&gt;" class="cls-1" points="118.38 24.74 118.38 27.9 111.69 27.9 111.69 48.42 108.37 48.42 108.37 27.9 101.68 27.9 101.68 24.74 118.38 24.74"/></clipPath></defs><title>Asset 1</title><g id="Layer_2" data-name="Layer 2"><g id="Layer_1-2" data-name="Layer 1"><path class="cls-2" d="M4.66,53.53v5.89H4.27V47.19h.39v5.9H19.1v.44Z"/><path class="cls-2" d="M4.27,44.42H19.1v.44H4.27Z"/><path class="cls-2" d="M11.86,25.14c-3,0-5.67,0-7.07,0v0c1.61.74,9.51,4.59,14.31,7v.41c-3.68,1.76-13,6.23-14.25,6.79v0c1.26-.06,5.09-.06,7.57-.06H19.1v.43H4.27v-.53c5.4-2.61,13.45-6.5,14.26-6.85v0c-1.25-.63-9.19-4.49-14.26-7v-.6H19.1v.44Z"/><path class="cls-2" d="M11.37,10.28v9.23h7.34V9.45l.39.11V19.94H4.27V9.85h.39v9.66H11V10.28Z"/><text class="cls-3" transform="translate(0.8 83.52)">NE<tspan class="cls-4" x="35.22" y="0">P</tspan><tspan class="cls-5" x="50.23" y="0">A</tspan><tspan class="cls-6" x="67.63" y="0">L</tspan><tspan class="cls-7" x="78.93" y="0">ESE</tspan></text><path class="cls-8" d="M57.29,12.58,55.84,16.2c1.83.25,3.7-.18,5.35,1a47.08,47.08,0,0,0,5.52,3.07c3.07-2.89,1.86-8.43-2.21-10.56a1.78,1.78,0,0,0-1-.16c-2.1.26-4.39.11-5.55,2.49-.09.19-.42.26-.62.37-4.22-2.77-8.92-3.16-12.12.65"/><path class="cls-8" d="M37.42,20.6l.13.51c2.26-2.76,5.53-3.5,8.7-4.41.09-3.07-2-4.49-4.26-5.39-2-.79-4.24-.85-6,.94-1.6,1.61-2.35,3.45-1.51,5.7.5,1.37,1,2.72,1.65,4.33l1.37-1.14"/><path class="cls-8" d="M79.11,10.23l-7.38,1.35"/><path class="cls-8" d="M78.77,16.78h-6"/><path class="cls-8" d="M30.77,20.64l-5.37.5"/><path class="cls-8" d="M72.9,2.85c-.82,1.5-2.6,2.41-2.68,4.36"/><path class="cls-8" d="M41.18,1.84,41,6.21"/><path class="cls-8" d="M32.28,2.18,35.14,6"/><path class="cls-8" d="M71.73,22.49c1.37.56,2.89,1,3,2.85"/><path class="cls-8" d="M28.76,13.09l-3.69-.51"/><path class="cls-8" d="M64.51,9.56l.15-1.69c-1.34,0-1.51.71-1.49,1.53"/><path class="cls-8" d="M63.33.5A7.44,7.44,0,0,0,62.69,2a10.24,10.24,0,0,0,0,1.84"/><path class="cls-8" d="M46.55,4.19l-1,3"/><path class="cls-8" d="M36.73,11.41l-1.14-1.25c-1.41.86-.54,1.46,0,2.09"/><circle class="cls-8" cx="52.61" cy="37.36" r="1.34"/><path class="cls-8" d="M52.61,26.61,54,37.36l-6.72,8,4-8S52.28,37,52.61,26.61Z"/><path class="cls-8" d="M39.45,54.18a10.48,10.48,0,0,1-.38,2.66,15.8,15.8,0,0,1-1.71,2.66c.58,1.73,2,1,3.16,1.26.91-1.44.92-3.45,2.62-4.4"/><path class="cls-8" d="M62.11,56.19c.62,1.06,1.22,2.14,1.85,3.19.31.5.67,1,1,1.44,2.33-1.27,2.36-1.37,1.36-3.62-.4-.89-.79-1.79-1.18-2.69"/><path class="cls-9" d="M65.63,36.07H63"/><path class="cls-9" d="M52,48v2.68"/><path class="cls-9" d="M40.46,36.07H38.11"/><path class="cls-8" d="M34.14,46.79c1.28,3,3.61,5.07,6.21,6.88,3.54,2.46,7.65,3.22,11.76,3.44a20.74,20.74,0,0,0,12.73-3.47,15.23,15.23,0,0,0,4.87-6A24.4,24.4,0,0,0,72,34.2a14.69,14.69,0,0,0-5.37-10,25.6,25.6,0,0,0-6-3.84,18.68,18.68,0,0,0-12.08-1.17c-5.8,1.3-10.34,4.12-13.55,9a18.35,18.35,0,0,0-2.5,14.41,24.92,24.92,0,0,0,1.63,4"/><path class="cls-8" d="M52.14,22.65c7.94-.19,14.2,5.26,15.88,12.94a12.28,12.28,0,0,1-1.27,7.88c-1.53,3.22-3.43,6.15-6.56,8A13.44,13.44,0,0,1,49.8,52.84c-4.83-1.13-9-3.39-11.75-7.7-3.46-5.42-2.5-12.56,1.65-17.3,3.11-3.55,7.12-4.92,11.6-5.36"/><path class="cls-10" d="M38.8,25.32l.34-.24a1.56,1.56,0,0,0,1.28,1.11"/><path class="cls-10" d="M41.41,23.46a3,3,0,0,0,1.12,1.24"/><path class="cls-10" d="M44.64,22.47l.62,1.12"/><path class="cls-10" d="M47.62,21.72v1.12"/><path class="cls-10" d="M48.86,21.35l.12.87"/><path class="cls-10" d="M53,20.23l-.38,1.49"/><path class="cls-10" d="M55.56,20.73a1.74,1.74,0,0,0-.37,1.12"/><path class="cls-10" d="M57.82,21.1l-.12,1"/><path class="cls-10" d="M58.92,22.1l2.23-.87"/><path class="cls-10" d="M60.9,22.84l1.62-.62"/><path class="cls-10" d="M62.64,23.46l1.24-.37"/><path class="cls-10" d="M63.51,25l2.11-.37"/><path class="cls-10" d="M66.86,29.67l1.74-.62"/><path class="cls-10" d="M68.48,32.4l1.73-.5"/><path class="cls-10" d="M70,34.84l1.09,1"/><path class="cls-10" d="M68.85,38.11a3,3,0,0,1,1,2.11"/><path class="cls-10" d="M68.1,46.18a2.75,2.75,0,0,0,1,1.37"/><path class="cls-10" d="M65.47,48.08a2.44,2.44,0,0,1,.88,2"/><path class="cls-10" d="M62,50.9l.75,1.49"/><path class="cls-10" d="M52.13,55.38l.11-.75"/><path class="cls-10" d="M46,55.12a2.89,2.89,0,0,1,1-1.24"/><path class="cls-10" d="M46,53.31c.22,0,.23-.42,0-.44l-2.4,1.4.27-.4"/><path class="cls-10" d="M42.65,52.14,39.7,53.38l.84-.62"/><path class="cls-10" d="M38.15,51.1l2-1.21"/><path class="cls-10" d="M35.43,45.53l1.39-1"/><path class="cls-10" d="M33.81,42.63l1.88-.57"/><path class="cls-10" d="M32.57,40l-.36-.24a3.77,3.77,0,0,1,2.37.47"/><path class="cls-10" d="M33,38.08l-.36-.37a4,4,0,0,0,2.08.41"/><path class="cls-10" d="M32.72,35a4,4,0,0,1,2.1.45"/><path class="cls-10" d="M34.59,33.6l2,.59"/><path class="cls-10" d="M35.58,31.76l1.24.63"/><path class="cls-10" d="M36.05,28.81l1.11,1.25"/><path class="cls-10" d="M37.4,26.74l1.74,1.31-.21-.37"/><path class="cls-10" d="M45.74,21.21,46,21a1.47,1.47,0,0,0,.75,1.14"/><path class="cls-10" d="M67.86,43.81a5.58,5.58,0,0,1,1.81,2.27"/><path class="cls-10" d="M64,55.63,63,57"/><path class="cls-10" d="M65.5,57.24l-.62,1.48c.11.51.76.8.51,1.25"/><path class="cls-10" d="M38.8,58.85,39.55,60"/><path class="cls-10" d="M39.67,57.48l.9.85,0-.35"/><path class="cls-10" d="M40.29,55.49a2,2,0,0,1,1.62.63"/><path class="cls-10" d="M41.68,54.58a1.67,1.67,0,0,1,.84,1l.26-.21"/><path class="cls-10" d="M48.86,54.25l-1,1.62"/><path class="cls-10" d="M52.09,54.62a3.21,3.21,0,0,1-.5,1.74"/><path class="cls-10" d="M54.94,54.75l.5,1.49"/><path class="cls-10" d="M58.6,53.46a11.45,11.45,0,0,0,2,1.75"/><path class="cls-10" d="M61.17,52.47a3.09,3.09,0,0,1,1.53,1.32"/><path class="cls-10" d="M64.39,51l1,1.37"/><path class="cls-10" d="M66.76,48.75A3.44,3.44,0,0,1,68.34,50"/><path class="cls-10" d="M34.92,16.69l2.14-1.21"/><path class="cls-10" d="M34.92,15.48l2.37-1.28-.32.07"/><path class="cls-10" d="M36,18.84a21.72,21.72,0,0,1,3.16-2.15"/><path class="cls-10" d="M35.77,17.64l1.4-.83"/><path class="cls-10" d="M38.27,18.92,41,17.06"/><path class="cls-10" d="M35.57,13.53l2.7-.56"/><path class="cls-10" d="M34,16.69,36.78,16"/><path class="cls-10" d="M35.68,29.71l2,1"/><path class="cls-10" d="M34.36,31.13a1.44,1.44,0,0,1,.84.56"/><path class="cls-10" d="M33.62,32.9a2.71,2.71,0,0,0,1.86.56"/><path class="cls-10" d="M36.78,28.15a4.73,4.73,0,0,0,1.87.84"/><path class="cls-10" d="M43.32,22.56l.37,1.11"/><path class="cls-10" d="M49.53,20a1.79,1.79,0,0,1,.13,1.68"/><path class="cls-10" d="M55.33,19.59l-1.58,2"/><path class="cls-10" d="M50.76,20.41a2,2,0,0,1,.36,1.22"/><path class="cls-10" d="M64.91,26.2l2.33-.56"/><path class="cls-10" d="M67,28l2.7-.67"/><path class="cls-10" d="M36,47.06l-.19.42,2-.89"/><path class="cls-10" d="M36.13,48.35v.25a10.2,10.2,0,0,0,2.52-1.08"/><path class="cls-10" d="M38.24,50.8l2.62-1.37"/><path class="cls-10" d="M34,45a5.37,5.37,0,0,1,2.75-1.3"/><path class="cls-10" d="M65.5,46.48l2,1.44"/><path class="cls-10" d="M69.65,36.63a2.45,2.45,0,0,0,2,1"/><path class="cls-10" d="M69.47,41l2,.21"/><path class="cls-10" d="M69.85,38.44l2.2.61"/><path class="cls-10" d="M67.22,31.56l3.55-1.28"/><path class="cls-10" d="M57.11,20.62l.13-.28a5.87,5.87,0,0,0-.61,2.59"/><path class="cls-10" d="M50.45,53.58,50,56"/><path class="cls-10" d="M53.05,54.66l.4,1.14"/><path class="cls-10" d="M57,53.76a1.27,1.27,0,0,0,.43,1.42"/><path class="cls-10" d="M64.34,49.2a2.08,2.08,0,0,0,1.13,1"/><path class="cls-10" d="M42.55,53.37l2.32-1.23"/><path class="cls-10" d="M40.37,51a4.19,4.19,0,0,1,1.91-.65"/><path class="cls-10" d="M33.71,41.09l2.15-.26"/><path class="cls-10" d="M62,23.86l-.65.38"/><path class="cls-10" d="M68.68,42.83A4.86,4.86,0,0,0,70.1,44.3"/><path class="cls-10" d="M69.28,33.71l2-.43"/><path class="cls-10" d="M34.73,36.63l-1.39-.75"/><path class="cls-10" d="M39.44,24.26a1.41,1.41,0,0,0,.61.62"/><g class="cls-11"><path class="cls-1" d="M98.91,15.07l-.23-.17,5.38-2"/><path class="cls-1" d="M93.3,18.32a15.6,15.6,0,0,1,5.47-1.76"/><path class="cls-1" d="M96.75,19.23l6.6-2.11"/><path d="M101.21,18.57l4.3-1.4"/><path class="cls-12" d="M97.13,16.15a86.19,86.19,0,0,1,8.6-2.64"/><path class="cls-12" d="M97.82,17.44a46.48,46.48,0,0,1,9-2.05"/><path d="M98.21,19.92,105,18.11"/><path class="cls-12" d="M95.92,16.3l8.34-1.87"/><path class="cls-12" d="M96.27,17.23c1.26-.23,2.47-.07,3.74-.25a45.79,45.79,0,0,0,4.8-1"/><path class="cls-12" d="M99.67,17.58a.26.26,0,0,0-.18.27,43.5,43.5,0,0,0,5.67-1"/><path class="cls-12" d="M107.45,17.57c-.74.22-1.76.2-2.3.83a26.09,26.09,0,0,0,7.59-1.78"/><path class="cls-12" d="M109.82,16.39l-1.1,1.21a24.14,24.14,0,0,1,3-1.65"/><path class="cls-13" d="M41.66,35.43A8.45,8.45,0,0,0,38.88,35"/><path class="cls-12" d="M95.32,16.5,103.56,15"/><path class="cls-12" d="M96.14,17.42l7-1"/><path class="cls-1" d="M102.31,17.92a13.25,13.25,0,0,1-5.17,1.23c1.88-.56,4-.76,5.87-1.28"/><path class="cls-1" d="M99.89,13.63a48.78,48.78,0,0,1,10.9-2.12"/><path class="cls-1" d="M102.8,16.35a137.53,137.53,0,0,1,15.65-2.15l-.44.17"/><path class="cls-14" d="M104,18.6,118.56,16"/><path class="cls-1" d="M107.18,13.36l-.45.05a51.47,51.47,0,0,1,10.43-2"/><path class="cls-14" d="M108.57,19.73a6.7,6.7,0,0,1-4.46-2.65,5.68,5.68,0,0,1,2.24-3,12.12,12.12,0,0,1,3.41-1.61A30.22,30.22,0,0,1,120.52,11c1.19.05,2.56.29,3.11,1.34-.52,1.67-2.31,2.56-3.95,3.17a29.88,29.88,0,0,1-13.93,2.09,4.83,4.83,0,0,1-1.91-.54,1.87,1.87,0,0,1-1-1.64,18.06,18.06,0,0,1,7.85-3.9,52.58,52.58,0,0,1,8.76-1.19c2.29-.19,4.68-.36,6.82.51a2,2,0,0,1-.7,1.67,5.09,5.09,0,0,1-1.61.94,36,36,0,0,1-15.8,2.88c-.78,0-1.69-.18-2-.87a1.57,1.57,0,0,1,.28-1.67,4,4,0,0,1,1.49-1,19.13,19.13,0,0,1,9.7-1.27,22.42,22.42,0,0,1,4.92,1.15c.58.2,1.06.54,1.61.77a5.73,5.73,0,0,0,2.06.26"/><path class="cls-1" d="M105.58,10.35l-.77.41"/><path class="cls-1" d="M94.6,12.22l-1.46,0a123.8,123.8,0,0,1,14.57-2.73l-1.44.61"/><path class="cls-1" d="M93.49,15q10.1-2.31,20.36-3.68l-1.53,0"/><path class="cls-1" d="M97,16.25l-.49.36,19.28-2.76-1.07-.24"/><path class="cls-1" d="M102.9,17.33l-.49.53,16.27-2.53-3.44.5"/><path d="M108.85,19.47l10.34-2.19c-.3,0-.6-.46-.9-.47l.64,0-14.47,2.78"/><path class="cls-14" d="M103.17,13.53A688.55,688.55,0,0,1,190.55,7"/><path class="cls-1" d="M104.2,15.22q19.29-1.19,38.61-2"/><path class="cls-1" d="M125.17,17.06l21.4-1"/><path class="cls-1" d="M81.05,29.72a49.34,49.34,0,0,1,6.54-2.63"/><path class="cls-1" d="M88.78,29.19l-.71.19"/><path class="cls-1" d="M80.5,34.93A47.52,47.52,0,0,1,87.59,32"/><path class="cls-1" d="M80.86,36.56l7.48-3.27-.2.05"/><path class="cls-1" d="M80.56,34.38a41.65,41.65,0,0,1,5.64-2.49"/><path class="cls-1" d="M82.37,32a42.17,42.17,0,0,0,5.56-2.07"/><path class="cls-1" d="M83.2,29.29a25.1,25.1,0,0,0,5.85-2.46"/><path class="cls-1" d="M81.31,26.9a26.66,26.66,0,0,1,5.93-2.16"/><path class="cls-1" d="M82,27l5.49-1.82"/><path class="cls-1" d="M82,28.33a18.86,18.86,0,0,1,4.73-1.6"/><path class="cls-1" d="M81.5,32.36c1.69-.74,3.41-1.4,5.16-2"/><path class="cls-1" d="M81.7,36.1a22.47,22.47,0,0,0,3.52-1.45"/><path class="cls-1" d="M81.05,39l4.38-2"/><path class="cls-1" d="M81.27,40.71l4-1.68"/><path class="cls-1" d="M82.07,42.48c1.44-.63,2.87-1.28,4.27-2l-.63.47"/><path class="cls-1" d="M82.39,44.21,86.69,42"/><path class="cls-1" d="M81.25,41.93a45.21,45.21,0,0,1,5.86-2.38"/><path class="cls-1" d="M84.36,39.21A19.93,19.93,0,0,1,89,37"/><path class="cls-1" d="M82.44,38.54a25.23,25.23,0,0,0,5.8-2.3"/><path class="cls-1" d="M82.78,36a18.61,18.61,0,0,1,4-1.42"/><path class="cls-1" d="M82.47,37.06c2-.48,3.92-1,5.86-1.63"/><path class="cls-1" d="M82.72,37.86a29.62,29.62,0,0,1,6-1.68"/><path class="cls-1" d="M82.85,44a23.16,23.16,0,0,1,4.6-2.41"/><path class="cls-1" d="M84.39,44.39a16.14,16.14,0,0,0,3.19-1.53"/><path class="cls-1" d="M84.49,45.7c1.21-.52,2.4-1.08,3.57-1.67"/><path class="cls-1" d="M83.85,47.07a20.52,20.52,0,0,0,3.94-1.85"/><path class="cls-1" d="M84.31,48.47l5.73-3-.3.15"/><path class="cls-1" d="M87.25,47.83A22.89,22.89,0,0,0,90.91,46"/><path class="cls-1" d="M88.91,48.36l4.24-2.22c-.24-.11-.3.33-.28.6,2-1.08,4-2.06,6.09-3"/><path class="cls-1" d="M91.35,48.21a21.6,21.6,0,0,0,5.33-2"/><path class="cls-1" d="M93.55,45.05a11.46,11.46,0,0,0,3.23-1.6"/><path class="cls-1" d="M93.48,43.53a20.85,20.85,0,0,0,4.76-2.79"/><path class="cls-1" d="M95.22,40.61a8.46,8.46,0,0,0,2.87-1.49"/><path class="cls-1" d="M94.46,39.92a6.83,6.83,0,0,0,3-1.75"/><path class="cls-1" d="M95.5,36.81a28.84,28.84,0,0,0,3.83-1.87"/><path class="cls-1" d="M96.26,35.05a6.15,6.15,0,0,0,2.65-1.64"/><path class="cls-1" d="M95,34.58a8.08,8.08,0,0,0,2.75-1.83"/><path class="cls-1" d="M95.31,33.63l1.74-1.17"/><path class="cls-1" d="M94.45,31.57a9,9,0,0,0,2.85-1.63"/><path class="cls-1" d="M95.2,29.27l3-1.63c.3-.16.62-.35.68-.68"/><path class="cls-1" d="M95.23,27.3l2.57-1.39"/><path class="cls-1" d="M94.89,26.69l3.2-1.51"/><path class="cls-1" d="M94.46,25.75a12,12,0,0,0,3.16-1.47"/><path class="cls-1" d="M94.74,30.84a13.89,13.89,0,0,0,2.78-1.39"/><path class="cls-1" d="M94.68,32.19l4.5-1.82-.27.05"/><path class="cls-1" d="M94.32,33.34l3.34-1.53"/><path class="cls-1" d="M95.92,35.28l1.6-1"/><path class="cls-1" d="M95.3,36.61a13,13,0,0,0,2.36-1.11"/><path class="cls-1" d="M94.88,38.77l2.78-1.33"/><path class="cls-1" d="M95.18,39.45a22.52,22.52,0,0,0,4-1.74"/><path class="cls-1" d="M81.39,39.92l3.06-1.11"/><path class="cls-1" d="M81.54,36.67a35.11,35.11,0,0,1,4.73-1.38"/><path class="cls-1" d="M82,34.29l2.36-.9"/><path class="cls-1" d="M81.2,34.67a20.89,20.89,0,0,0,3.54-1"/><path class="cls-1" d="M81.26,35.42l3.75-1"/><path class="cls-1" d="M81.77,31.24l2.49-.93"/><path class="cls-1" d="M80.35,30.82l3.06-.9"/><path class="cls-1" d="M94.69,38.47A16.54,16.54,0,0,1,98,36.83"/><path class="cls-1" d="M93.7,41.47a12.47,12.47,0,0,1,2.85-1"/><path class="cls-1" d="M93.65,42.58a21.65,21.65,0,0,0,4.63-1.95"/><path class="cls-1" d="M93.64,45.05a31.64,31.64,0,0,0,4.57-2.13"/><path class="cls-1" d="M92.32,44.76l7-2.5"/><path class="cls-1" d="M90.72,46a26.06,26.06,0,0,0,4.36-1.65"/><path class="cls-1" d="M92.53,46.58a29,29,0,0,0,4.71-1.43"/><path class="cls-1" d="M92.67,47.75l4.86-2"/><path class="cls-1" d="M89.32,48.56l4.93-2.09"/><path class="cls-1" d="M86.62,48.09c.78-.34,1.44-.75,2.27-1,1.11-.39,2.2-.82,3.28-1.28"/><path class="cls-1" d="M85.36,46.88a55.52,55.52,0,0,0,5.35-1.72"/><path class="cls-1" d="M83.05,46l4.89-1.82"/><path class="cls-1" d="M82,44.92l4.53-1.77"/><path class="cls-1" d="M83.07,43.85l3-1.32"/><path class="cls-1" d="M81.74,43A15.28,15.28,0,0,1,86.2,41.2"/><path class="cls-1" d="M80.57,40.5l4.73-2.14"/><path class="cls-1" d="M84,31.25l-3,1a40.74,40.74,0,0,1,4.8-.95"/><path class="cls-1" d="M81.61,33.21l5.14-1.74"/><path class="cls-1" d="M83.2,29.72l1.54-.83"/><path class="cls-1" d="M80.73,27.76a20.76,20.76,0,0,1,3.73-1.42"/><path class="cls-1" d="M85.23,24.47l-4.11,1.3"/><path class="cls-1" d="M82.73,27.93l2.91-1.06"/><path class="cls-1" d="M97.94,27l-4.37,2"/><path class="cls-1" d="M95.16,29.25l2.78-1.11"/><path class="cls-1" d="M94.88,31.38l3.19-.9"/><path class="cls-1" d="M94.55,36l4.7-1.42"/><path class="cls-1" d="M94.75,41.21l3-1.05"/><path class="cls-1" d="M95.92,42.43l3.54-1.32"/><path class="cls-1" d="M95.19,45a1.17,1.17,0,0,0,.79-.14l4.1-1.71"/></g><path id="_Compound_Clipping_Path_2" data-name="&lt;Compound Clipping Path&gt;" class="cls-1" d="M85.32,47.63a6.84,6.84,0,0,1-2.84-3,10.71,10.71,0,0,1-1-4.77V24.74h3.32V40a5.68,5.68,0,0,0,1.3,4,5.5,5.5,0,0,0,7.38,0,5.64,5.64,0,0,0,1.32-4V24.74h3.32V39.85a10.71,10.71,0,0,1-1,4.77,6.81,6.81,0,0,1-2.85,3,10.35,10.35,0,0,1-9,0Z"/><g class="cls-15"><path class="cls-1" d="M102.56,26a13.48,13.48,0,0,1,2.39-1.3"/><path class="cls-1" d="M102.14,27.57a50.45,50.45,0,0,1,5.79-2.65"/><path class="cls-1" d="M102.24,26.74,106.62,25"/><path class="cls-1" d="M104.21,27.54l8.23-3.2"/><path class="cls-1" d="M107,27.75a54.1,54.1,0,0,1,6.14-2.32"/><path class="cls-1" d="M108.6,28l6.4-2.31"/><path class="cls-1" d="M112.76,27.39l6.1-2.23"/><path class="cls-1" d="M115.69,27.53l2.5-1"/><path class="cls-1" d="M116.32,28l2.29-.95"/><path class="cls-1" d="M108.12,30.73l5.42-3"/><path class="cls-1" d="M108.45,32.25A39,39,0,0,1,114.23,29H114"/><path class="cls-1" d="M109,34a15.23,15.23,0,0,1,3.12-1.88"/><path class="cls-1" d="M108.55,35.5A15.3,15.3,0,0,1,110.84,34"/><path class="cls-1" d="M107.92,37.47a39.61,39.61,0,0,1,3.86-2.55"/><path class="cls-1" d="M108.36,39.27a53.24,53.24,0,0,1,4.81-3"/><path class="cls-1" d="M109,40.13a25.77,25.77,0,0,1,3.13-2"/><path class="cls-1" d="M109,41.65l3.44-2.14"/><path class="cls-1" d="M108.33,44.31a48.91,48.91,0,0,1,4.23-2.55"/><path class="cls-1" d="M107.87,46.07l-.18.27a46.08,46.08,0,0,1,4.16-2.68"/><path class="cls-1" d="M108.23,47.49l3.47-2.24"/><path class="cls-1" d="M109.34,47.81,112.13,46"/><path class="cls-1" d="M110.37,48l2.09-1.09"/><path class="cls-1" d="M110.62,48.76a20.4,20.4,0,0,1,2.57-1.59"/><path class="cls-1" d="M107.59,47.41a48.31,48.31,0,0,1,4.34-3.07"/><path class="cls-1" d="M109,45l3.49-2.25"/><path class="cls-1" d="M110.84,43.11l1.77-1.52"/><path class="cls-1" d="M107.58,43a8.51,8.51,0,0,0,2.79-1.44,22.37,22.37,0,0,1,2.4-1.48"/><path class="cls-1" d="M109.23,43.06l1.93-1.56"/><path class="cls-1" d="M107.91,40.53l4.48-2.4"/><path class="cls-1" d="M110.53,38.31a16.27,16.27,0,0,1,2.81-1.67"/><path class="cls-1" d="M107.31,38.34A5.74,5.74,0,0,0,109.8,37a9.43,9.43,0,0,1,2.76-1.53"/><path class="cls-1" d="M107.87,35.51A17.91,17.91,0,0,0,111.15,34"/><path class="cls-1" d="M109.29,35.36,113,33.69"/><path class="cls-1" d="M108.23,33.61a33.26,33.26,0,0,1,4.7-2.54"/><path class="cls-1" d="M109,32.33l2.6-1.26"/><path class="cls-1" d="M109.17,30.8l2.24-1.09"/><path class="cls-1" d="M108.07,29.17l4-1.9"/><path class="cls-1" d="M114.91,25.34a16.2,16.2,0,0,0,2.66-1.18"/><path class="cls-1" d="M111.73,26.38l2.5-1.15"/><path class="cls-1" d="M107.25,26.48l4.11-1.4"/><path class="cls-1" d="M106.21,27.29a22.16,22.16,0,0,0,6.34-2"/><path class="cls-1" d="M113.92,28.06l4.73-1.85"/><path class="cls-1" d="M115.38,25.44a5.89,5.89,0,0,1,2.5-1.18"/><path class="cls-1" d="M102.24,25.58c.41-.46.73-1.12,1.31-1.34"/><path class="cls-1" d="M103,28.33l4.8-2.38"/><path class="cls-1" d="M102.88,27.85a19.5,19.5,0,0,0,3.22-1.48"/><path class="cls-1" d="M107.4,28.47q3.42-1.45,6.93-2.62"/><path class="cls-1" d="M107.62,30.11a17.75,17.75,0,0,0,3.63-1.65"/><path class="cls-1" d="M116.78,24.55l-2,1.56"/><path class="cls-1" d="M115.53,24.81a5.8,5.8,0,0,0-1.61,1.26"/><path class="cls-1" d="M107.77,41.39,110,40.14"/><path class="cls-1" d="M110.9,39.62a11.7,11.7,0,0,0,2.18-.95"/><path class="cls-1" d="M108.29,38.73l1.3-.63"/><path class="cls-1" d="M110.77,36.67l1.63-.87"/><path class="cls-1" d="M110.85,33.17l1.51-.63"/><path class="cls-1" d="M108.5,36.07a1.3,1.3,0,0,0,.78-.37"/><path class="cls-1" d="M108.21,48.08l.85-.82"/><path class="cls-1" d="M109.29,48.53l1.19-.73"/><path class="cls-1" d="M107.92,34.67a3.15,3.15,0,0,0,1.67-.42"/><path class="cls-1" d="M112.09,33.36l1-.47"/><path class="cls-1" d="M110.68,27.73A14.87,14.87,0,0,0,113,27"/><path class="cls-1" d="M109.83,28.51a1.65,1.65,0,0,0,1.47,0"/><path class="cls-1" d="M116,25.65l3.28-1.26"/><path class="cls-1" d="M113.76,24.33l-2.51.84"/><path class="cls-1" d="M108,25.54l2.82-1.2"/><path class="cls-1" d="M110.22,39.82l.36-.26"/></g><polygon id="_Clipping_Path_2" data-name="&lt;Clipping Path&gt;" class="cls-1" points="118.38 24.74 118.38 27.9 111.69 27.9 111.69 48.42 108.37 48.42 108.37 27.9 101.68 27.9 101.68 24.74 118.38 24.74"/><text class="cls-16" transform="translate(81.24 61.24)">with</text><path class="cls-10" d="M57,14.77a15.87,15.87,0,0,1,4.46.09"/><path class="cls-10" d="M57.43,13.57a21.21,21.21,0,0,1,6.38.85"/><path class="cls-10" d="M59.22,12.11l-.37,0,2.76.56"/><path class="cls-10" d="M60.16,11.12l3.74,1"/><path class="cls-10" d="M61.93,10.53,64,11"/><path class="cls-10" d="M56.59,15.74c1.53-.05,3.06,0,4.59.08"/><path class="cls-10" d="M35.87,20.46a16.82,16.82,0,0,1,2.49-1.21"/></g></g></svg>