<svg xmlns="http://www.w3.org/2000/svg" viewBox="0 0 54.41 61.02"><defs><style>.cls-1,.cls-2{fill:none;stroke:#fff;stroke-width:0.75px;}.cls-1{stroke-linecap:round;stroke-linejoin:round;}.cls-2{stroke-miterlimit:10;}.cls-3{fill:#fff;}</style></defs><title>services</title><g id="Layer_2" data-name="Layer 2"><g id="Layer_1-2" data-name="Layer 1"><path class="cls-1" d="M32.24,12.45l-1.45,3.62c1.82.25,3.7-.18,5.34,1a48.54,48.54,0,0,0,5.52,3.06c3.07-2.89,1.86-8.43-2.21-10.55a1.79,1.79,0,0,0-1-.17c-2.09.26-4.38.12-5.55,2.5-.09.18-.42.26-.61.37-4.22-2.77-8.92-3.16-12.12.64"/><path class="cls-1" d="M12.38,20.46l.13.5c2.26-2.75,5.53-3.49,8.69-4.4.09-3.06-2-4.49-4.25-5.38-2-.79-4.24-.85-6,.93-1.59,1.62-2.34,3.46-1.51,5.71.51,1.36,1,2.71,1.65,4.32L12.45,21"/><path class="cls-1" d="M54,10.1l-7.38,1.34"/><path class="cls-1" d="M53.7,16.64h-6"/><path class="cls-1" d="M5.74,20.5.38,21"/><path class="cls-1" d="M47.83,2.72c-.82,1.5-2.6,2.41-2.68,4.36"/><path class="cls-1" d="M16.14,1.72,16,6.08"/><path class="cls-1" d="M7.25,2.05,10.1,5.91"/><path class="cls-1" d="M46.66,22.34c1.37.57,2.9,1,3,2.85"/><path class="cls-1" d="M39.45,9.43l.15-1.7c-1.34,0-1.51.71-1.49,1.53"/><path class="cls-1" d="M38.28.38a6.89,6.89,0,0,0-.65,1.51,10.24,10.24,0,0,0,0,1.84"/><path class="cls-1" d="M21.51,4.06l-1,3"/><path class="cls-1" d="M11.69,11.28,10.56,10c-1.42.86-.54,1.46,0,2.08"/><path class="cls-1" d="M14.41,54A10.48,10.48,0,0,1,14,56.67a16.39,16.39,0,0,1-1.7,2.66c.58,1.72,2,1,3.15,1.26.91-1.45.92-3.45,2.62-4.4"/><path class="cls-1" d="M37.05,56c.62,1.06,1.22,2.13,1.85,3.19.31.5.67,1,1,1.44,2.33-1.27,2.36-1.37,1.36-3.62-.4-.89-.79-1.79-1.18-2.68"/><path class="cls-1" d="M9.11,46.62c1.28,3,3.6,5.07,6.2,6.88C18.85,56,23,56.72,27.06,56.94a20.78,20.78,0,0,0,12.72-3.46,15.22,15.22,0,0,0,4.86-6A24.25,24.25,0,0,0,47,34.05a14.71,14.71,0,0,0-5.37-10,25.6,25.6,0,0,0-6-3.84A18.65,18.65,0,0,0,23.51,19c-5.79,1.3-10.33,4.12-13.54,9a18.35,18.35,0,0,0-2.5,14.39,24.1,24.1,0,0,0,1.64,4"/><path class="cls-1" d="M13.76,25.18l.34-.24A1.55,1.55,0,0,0,15.38,26"/><path class="cls-1" d="M16.37,23.32a3,3,0,0,0,1.12,1.24"/><path class="cls-1" d="M19.59,22.33l.62,1.11"/><path class="cls-1" d="M22.57,21.58V22.7"/><path class="cls-1" d="M23.81,21.21l.13.87"/><path class="cls-1" d="M27.91,20.09l-.38,1.49"/><path class="cls-1" d="M30.51,20.59a1.72,1.72,0,0,0-.37,1.12"/><path class="cls-1" d="M32.77,21l-.12,1"/><path class="cls-1" d="M33.86,22l2.23-.87"/><path class="cls-1" d="M35.85,22.7l1.61-.62"/><path class="cls-1" d="M37.58,23.32,38.82,23"/><path class="cls-1" d="M38.45,24.81l2.11-.38"/><path class="cls-1" d="M41.8,29.52l1.74-.62"/><path class="cls-1" d="M43.41,32.25l1.74-.5"/><path class="cls-1" d="M45,34.68l1.09,1"/><path class="cls-1" d="M43.79,38a2.93,2.93,0,0,1,1,2.11"/><path class="cls-1" d="M43,46a2.79,2.79,0,0,0,1,1.37"/><path class="cls-1" d="M40.41,47.91a2.46,2.46,0,0,1,.88,2"/><path class="cls-1" d="M37,50.73l.75,1.49"/><path class="cls-1" d="M27.08,55.21l.11-.75"/><path class="cls-1" d="M21,55a2.85,2.85,0,0,1,1-1.24"/><path class="cls-1" d="M21,53.15c.22,0,.23-.43,0-.44L18.57,54.1l.26-.4"/><path class="cls-1" d="M17.61,52l-2.95,1.23.84-.61"/><path class="cls-1" d="M13.11,50.93l2-1.21"/><path class="cls-1" d="M10.39,45.37l1.39-1"/><path class="cls-1" d="M8.78,42.47l1.88-.57"/><path class="cls-1" d="M7.54,39.85l-.37-.25a3.76,3.76,0,0,1,2.37.47"/><path class="cls-1" d="M8,37.92l-.36-.36a4,4,0,0,0,2.07.4"/><path class="cls-1" d="M7.68,34.8a4.06,4.06,0,0,1,2.11.44"/><path class="cls-1" d="M9.56,33.45l2,.58"/><path class="cls-1" d="M10.55,31.61l1.23.63"/><path class="cls-1" d="M11,28.67l1.11,1.24"/><path class="cls-1" d="M12.36,26.59l1.74,1.32-.21-.37"/><path class="cls-1" d="M20.7,21.07l.24-.23A1.48,1.48,0,0,0,21.69,22"/><path class="cls-1" d="M42.8,43.65a5.58,5.58,0,0,1,1.81,2.27"/><path class="cls-1" d="M39,55.46l-1,1.37"/><path class="cls-1" d="M40.44,57.07l-.62,1.48c.12.51.76.8.51,1.25"/><path class="cls-1" d="M13.76,58.67l.75,1.12"/><path class="cls-1" d="M14.63,57.31l.9.85,0-.35"/><path class="cls-1" d="M15.25,55.32a2,2,0,0,1,1.61.63"/><path class="cls-1" d="M16.64,54.41a1.67,1.67,0,0,1,.84,1l.25-.21"/><path class="cls-1" d="M23.81,54.08l-1,1.62"/><path class="cls-1" d="M27,54.46a3.12,3.12,0,0,1-.5,1.73"/><path class="cls-1" d="M29.89,54.58l.5,1.49"/><path class="cls-1" d="M33.54,53.29a11.47,11.47,0,0,0,2,1.75"/><path class="cls-1" d="M36.11,52.3a3.06,3.06,0,0,1,1.53,1.33"/><path class="cls-1" d="M39.34,50.85l1,1.36"/><path class="cls-1" d="M41.69,48.58a3.49,3.49,0,0,1,1.59,1.3"/><path class="cls-1" d="M9.89,16.56,12,15.35"/><path class="cls-1" d="M9.89,15.35l2.37-1.28-.33.07"/><path class="cls-1" d="M10.92,18.7a21.1,21.1,0,0,1,3.15-2.15"/><path class="cls-1" d="M10.73,17.5l1.4-.82"/><path class="cls-1" d="M13.23,18.78l2.7-1.86"/><path class="cls-1" d="M10.54,13.39l2.7-.56"/><path class="cls-1" d="M9,16.56l2.79-.75"/><path class="cls-1" d="M10.64,29.56l1.95,1"/><path class="cls-1" d="M9.33,31a1.5,1.5,0,0,1,.84.56"/><path class="cls-1" d="M8.58,32.75a2.72,2.72,0,0,0,1.87.55"/><path class="cls-1" d="M11.75,28a4.43,4.43,0,0,0,1.86.84"/><path class="cls-1" d="M18.28,22.41l.37,1.12"/><path class="cls-1" d="M24.48,19.82a1.79,1.79,0,0,1,.13,1.68"/><path class="cls-1" d="M30.28,19.45l-1.58,2"/><path class="cls-1" d="M25.71,20.27a2,2,0,0,1,.36,1.22"/><path class="cls-1" d="M39.85,26.05l2.32-.56"/><path class="cls-1" d="M41.9,27.84l2.69-.68"/><path class="cls-1" d="M10.93,46.9l-.19.42,2-.9"/><path class="cls-1" d="M11.1,48.19v.25a9.71,9.71,0,0,0,2.52-1.09"/><path class="cls-1" d="M13.2,50.63l2.62-1.37"/><path class="cls-1" d="M9,44.88a5.34,5.34,0,0,1,2.74-1.3"/><path class="cls-1" d="M40.44,46.32l2,1.44"/><path class="cls-1" d="M44.58,36.48a2.46,2.46,0,0,0,2,1"/><path class="cls-1" d="M44.41,40.82l2,.21"/><path class="cls-1" d="M44.79,38.29l2.19.6"/><path class="cls-1" d="M42.16,31.41l3.54-1.28"/><path class="cls-1" d="M32.06,20.48l.12-.28a6.12,6.12,0,0,0-.61,2.59"/><path class="cls-1" d="M25.4,53.41,25,55.83"/><path class="cls-1" d="M28,54.5l.4,1.14"/><path class="cls-1" d="M32,53.6A1.27,1.27,0,0,0,32.38,55"/><path class="cls-1" d="M39.28,49a2.06,2.06,0,0,0,1.13,1"/><path class="cls-1" d="M17.51,53.2,19.83,52"/><path class="cls-1" d="M15.33,50.81a4.31,4.31,0,0,1,1.91-.65"/><path class="cls-1" d="M8.68,40.93l2.14-.26"/><path class="cls-1" d="M37,23.72l-.65.37"/><path class="cls-1" d="M43.62,42.67A4.82,4.82,0,0,0,45,44.14"/><path class="cls-1" d="M44.21,33.56l2-.44"/><path class="cls-1" d="M9.7,36.48l-1.4-.75"/><path class="cls-1" d="M14.4,24.12a1.38,1.38,0,0,0,.61.61"/><path class="cls-1" d="M32,14.63a16.58,16.58,0,0,1,4.45.09"/><path class="cls-1" d="M32.38,13.44a21.09,21.09,0,0,1,6.37.84"/><path class="cls-1" d="M34.16,12l-.36,0,2.75.57"/><path class="cls-1" d="M35.1,11l3.74,1"/><path class="cls-1" d="M36.88,10.39l2,.52"/><path class="cls-1" d="M31.54,15.6c1.53,0,3.06,0,4.59.08"/><path class="cls-1" d="M10.83,20.32a16.82,16.82,0,0,1,2.49-1.21"/><path class="cls-1" d="M27.09,22.51C35,22.32,41.28,27.76,43,35.44a12.26,12.26,0,0,1-1.27,7.87c-1.53,3.22-3.43,6.14-6.55,8a13.49,13.49,0,0,1-10.39,1.34c-4.83-1.14-9-3.4-11.73-7.7-3.46-5.42-2.5-12.55,1.64-17.29,3.11-3.55,7.11-4.91,11.6-5.35"/><path class="cls-2" d="M14.3,27.35a1.35,1.35,0,0,1-.75-.94"/><path class="cls-3" d="M22.14,43.86c-.07,0-.14-.07-.2-.07l-.87,0c-.29,0-.58.08-.87.08s-.58,0-.87,0a.53.53,0,0,1-.28-.14,2.14,2.14,0,0,1-.48-.47,2.61,2.61,0,0,1-.36-.57,4,4,0,0,1-.24-.62,5.61,5.61,0,0,1-.23-.65c0-.24.1-.48.08-.72s-.18-.46-.19-.69.17-.52.17-.78,0-.52.05-.78-.12-.42-.1-.62l.06-.62c0-.28.05-.57.11-.84s.22-.53.29-.8.12-.55.2-.82a4,4,0,0,1,.47-1.11,3.12,3.12,0,0,1,.58-.75,2.43,2.43,0,0,1,.86-.4,2.11,2.11,0,0,1,1.13-.15,1.48,1.48,0,0,1,.85.52,2,2,0,0,1,.29.6,2.9,2.9,0,0,1,.14.65c0,.23.2.46.19.69a3.56,3.56,0,0,1-.06.72c0,.12-.15.22-.17.34s-.17,0-.19,0c-.14-.23-.09-.56-.19-.8s-.34-.44-.38-.71a1.09,1.09,0,0,0-.42-.64,1,1,0,0,0-.71-.24,1.06,1.06,0,0,0-.84.38,1.17,1.17,0,0,0-.32.93c.05.25.11.51.18.74s.33.42.43.65a5.38,5.38,0,0,0,.24.71c.13.22.37.36.52.56s.21.47.38.66.58.52.86.77a.25.25,0,0,1,.1.24c0,.27,0,.55,0,.83s-.12.54-.14.82.07.55.06.83,0,.55,0,.83-.11.42-.12.63,0,.43,0,.64C22.1,43.72,22.15,43.79,22.14,43.86Z"/><path class="cls-3" d="M37.18,39.5c0-.27.22-.55.21-.82s-.21-.53-.24-.8.07-.55,0-.82-.16-.54-.22-.81-.22-.53-.29-.8,0-.59,0-.86a4.18,4.18,0,0,0-.57-1,3,3,0,0,0-.63-.69,2.41,2.41,0,0,0-.8-.45,2.23,2.23,0,0,0-1.13-.16,1.41,1.41,0,0,0-.58.4,1.86,1.86,0,0,0-.42.53,3,3,0,0,0-.32.85,3.06,3.06,0,0,0,0,.91,7.25,7.25,0,0,0,.22.76c0,.1.06.28,0,.37-.25.29-.6.49-.87.76a6.33,6.33,0,0,1-.72.56A4.73,4.73,0,0,1,30,38a6.23,6.23,0,0,1-.85.33,5.19,5.19,0,0,1-.88.24l-.38,0-.07.1s.17-.05.2,0a1.22,1.22,0,0,1,.33.89,1.15,1.15,0,0,1-.32.86s-.06.1-.1.15a4.31,4.31,0,0,0,.9-.08,7.1,7.1,0,0,0,.81-.3c.27-.09.55-.15.81-.26a7.83,7.83,0,0,0,.78-.36,8,8,0,0,0,.7-.49c.22-.17.49-.25.71-.45,0,.08.06,0,.06.08,0,.25-.13.52-.11.77s.17.5.18.76.07.65.08,1-.12.66-.1,1c0,.08.09.15.11.23a5.56,5.56,0,0,1,0,.81c0,.15.14.29.14.44s0,0,0,.06,0,.08.09.08l.89,0,.89,0c.3,0,.6.07.89.07.09,0,.17-.09.24-.13a2.25,2.25,0,0,0,.82-.77,4.12,4.12,0,0,0,.18-.69,3.75,3.75,0,0,0,.22-.67c0-.24.1-.47.12-.71s-.09-.49-.08-.73S37.18,39.74,37.18,39.5Zm-.79-.68c0,.29-.06.57-.09.85s-.21.55-.26.83,0,.57-.06.85-.14.4-.19.6,0,.42-.08.62a1.2,1.2,0,0,1-.4.55,1.14,1.14,0,0,1-.61.21.94.94,0,0,1-.87-.2,1.12,1.12,0,0,1-.55-.79,1.5,1.5,0,0,1,0-.42c.07-.25.2-.49.26-.75s.13-.51.18-.77,0-.52.08-.78.19-.48.21-.73-.09-.51-.09-.76a6.12,6.12,0,0,0,0-.74,6,6,0,0,0,0-.84,4.63,4.63,0,0,0-.22-.81,2.47,2.47,0,0,0-.38-.59,1.05,1.05,0,0,1-.19-.8,1,1,0,0,1,1.15-1,1.05,1.05,0,0,1,.73.38c.15.15.38.26.49.44a5.26,5.26,0,0,1,.25.66c.09.22.18.43.25.66s.06.46.11.69.05.6.08.9a8.22,8.22,0,0,1,.19.91C36.42,38.25,36.41,38.54,36.39,38.82Z"/><path class="cls-3" d="M20.84,33.5a1.25,1.25,0,0,1,1,.85,3.58,3.58,0,0,0,.18.64,4.41,4.41,0,0,0,.23.64,8.49,8.49,0,0,0,.94,1.31,4.49,4.49,0,0,0,.76.53,5.8,5.8,0,0,0,.82.43,6.7,6.7,0,0,0,.7.37c.25.09.52.1.78.17s.51.1.77.14.29.12.44.14A.83.83,0,0,1,28,39a1,1,0,0,1,0,1.14c-.13.19-.25.4-.47.46s-.4-.09-.6-.12-.53,0-.79,0-.5-.18-.76-.25-.52-.08-.77-.17-.56-.21-.82-.34a7.44,7.44,0,0,1-.73-.52,6.59,6.59,0,0,1-.76-.45,7.23,7.23,0,0,1-.69-.55,8.86,8.86,0,0,1-.53-.72c-.18-.24-.43-.43-.58-.68a8.51,8.51,0,0,1-.29-.85,5.89,5.89,0,0,1-.31-.83,3.31,3.31,0,0,1,0-.45.93.93,0,0,1,.12-.79A1.06,1.06,0,0,1,20.84,33.5Z"/><path class="cls-3" d="M25.85,30.49a2.29,2.29,0,0,1-.23.86,2.12,2.12,0,0,1-.47.74,2.24,2.24,0,0,1-.72.54,2.21,2.21,0,0,1-.89.18,2.33,2.33,0,0,1-.87-.22,2.23,2.23,0,0,1-.77-.46,2.39,2.39,0,0,1-.46-.77,2.28,2.28,0,0,1-.15-.87,2.32,2.32,0,0,1,.12-.88,2.39,2.39,0,0,1,.51-.74,2.48,2.48,0,0,1,.74-.5,2.34,2.34,0,0,1,.88-.18,2.28,2.28,0,0,1,.86.22,2.39,2.39,0,0,1,.77.46,2.52,2.52,0,0,1,.51.73A2.39,2.39,0,0,1,25.85,30.49Z"/><path class="cls-3" d="M33.58,30.49a2.29,2.29,0,0,1-.18.87,2.2,2.2,0,0,1-.5.74,2.36,2.36,0,0,1-.72.53,2.38,2.38,0,0,1-.89.16,2.34,2.34,0,0,1-.88-.18,2.49,2.49,0,0,1-.75-.49,2.45,2.45,0,0,1-.44-.77,2.09,2.09,0,0,1,.46-2.48,2.22,2.22,0,0,1,.74-.47,1.76,1.76,0,0,1,1.74,0,2.42,2.42,0,0,1,.74.48,2.19,2.19,0,0,1,.51.73A2.34,2.34,0,0,1,33.58,30.49Z"/><path class="cls-3" d="M36.24,38c0,.26,0,.51,0,.76s-.05.51-.08.75-.18.49-.23.73,0,.51,0,.76-.12.35-.17.53,0,.37-.07.55a1.21,1.21,0,0,1-.36.49,1,1,0,0,1-.53.19.87.87,0,0,1-.77-.18c-.23-.18-.49-.39-.49-.7a1.63,1.63,0,0,1,0-.38c.07-.22.18-.43.23-.66s.12-.45.16-.68,0-.46.07-.7.17-.42.19-.64-.08-.45-.08-.67,0-.44,0-.66a6.12,6.12,0,0,0,0-.74,3.67,3.67,0,0,0-.2-.72,2.18,2.18,0,0,0-.33-.52.92.92,0,0,1-.17-.71,1,1,0,0,1,.28-.69,1.11,1.11,0,0,1,.74-.22,1,1,0,0,1,.65.34c.13.14.33.23.43.39a6,6,0,0,1,.22.59,5.77,5.77,0,0,1,.22.58c.06.2.06.41.1.61s0,.54.07.8S36.24,37.75,36.24,38Z"/></g></g></svg>