<svg xmlns="http://www.w3.org/2000/svg" viewBox="0 0 54.75 61.02"><defs><style>.cls-1{fill:none;stroke:#fff;stroke-linecap:round;stroke-linejoin:round;stroke-width:0.75px;}.cls-2{fill:#fff;}.cls-3{fill:red;}</style></defs><title>surprise</title><g id="Layer_2" data-name="Layer 2"><g id="Layer_1-2" data-name="Layer 1"><path class="cls-1" d="M32.57,12.45l-1.44,3.62c1.82.25,3.69-.18,5.34,1A48.39,48.39,0,0,0,42,20.16c3.07-2.89,1.87-8.43-2.2-10.55a1.82,1.82,0,0,0-1-.17c-2.1.26-4.39.12-5.55,2.5-.09.18-.42.26-.62.37C28.39,9.54,23.7,9.15,20.5,13"/><path class="cls-1" d="M12.71,20.46l.14.5c2.26-2.75,5.52-3.49,8.69-4.4.09-3.06-2-4.49-4.25-5.38-2-.79-4.25-.85-6,.93-1.6,1.62-2.34,3.46-1.51,5.71.5,1.36,1,2.71,1.64,4.32L12.78,21"/><path class="cls-1" d="M54.38,10.1,47,11.44"/><path class="cls-1" d="M54,16.64H48"/><path class="cls-1" d="M6.08,20.5.71,21"/><path class="cls-1" d="M48.17,2.72c-.82,1.5-2.6,2.41-2.68,4.36"/><path class="cls-1" d="M16.47,1.72l-.16,4.36"/><path class="cls-1" d="M7.59,2.05l2.85,3.86"/><path class="cls-1" d="M47,22.34c1.37.57,2.89,1,3,2.85"/><path class="cls-1" d="M4.06,13l-3.68-.5"/><path class="cls-1" d="M39.78,9.43l.15-1.7c-1.33,0-1.5.71-1.49,1.53"/><path class="cls-1" d="M38.61.38A7.36,7.36,0,0,0,38,1.89a9.39,9.39,0,0,0,0,1.84"/><path class="cls-1" d="M21.84,4.06l-1,3"/><path class="cls-1" d="M12,11.28,10.89,10c-1.41.86-.54,1.46,0,2.08"/><path class="cls-1" d="M14.75,54a10.48,10.48,0,0,1-.38,2.66,17.16,17.16,0,0,1-1.71,2.66c.58,1.72,2,1,3.15,1.26.91-1.45.92-3.45,2.63-4.4"/><path class="cls-1" d="M37.39,56c.61,1.06,1.21,2.13,1.85,3.19.3.5.67,1,1,1.44,2.33-1.27,2.36-1.37,1.35-3.62-.4-.89-.78-1.79-1.17-2.68"/><path class="cls-1" d="M9.45,46.62c1.27,3,3.59,5.07,6.2,6.88,3.53,2.46,7.64,3.22,11.74,3.44a20.79,20.79,0,0,0,12.73-3.46,15.31,15.31,0,0,0,4.86-6,24.24,24.24,0,0,0,2.33-13.4,14.67,14.67,0,0,0-5.37-10,25.54,25.54,0,0,0-6-3.84A18.66,18.66,0,0,0,23.85,19c-5.8,1.3-10.34,4.12-13.54,9a18.31,18.31,0,0,0-2.5,14.39,24.1,24.1,0,0,0,1.64,4"/><path class="cls-1" d="M14.1,25.18l.34-.24A1.54,1.54,0,0,0,15.71,26"/><path class="cls-1" d="M16.7,23.32a3,3,0,0,0,1.12,1.24"/><path class="cls-1" d="M19.93,22.33l.62,1.11"/><path class="cls-1" d="M22.91,21.58V22.7"/><path class="cls-1" d="M24.15,21.21l.12.87"/><path class="cls-1" d="M28.24,20.09l-.37,1.49"/><path class="cls-1" d="M30.85,20.59a1.73,1.73,0,0,0-.38,1.12"/><path class="cls-1" d="M33.1,21,33,22"/><path class="cls-1" d="M34.2,22l2.23-.87"/><path class="cls-1" d="M36.18,22.7l1.61-.62"/><path class="cls-1" d="M37.92,23.32,39.16,23"/><path class="cls-1" d="M38.79,24.81l2.11-.38"/><path class="cls-1" d="M42.14,29.52l1.73-.62"/><path class="cls-1" d="M43.75,32.25l1.74-.5"/><path class="cls-1" d="M45.28,34.68l1.1,1"/><path class="cls-1" d="M44.12,38a2.93,2.93,0,0,1,1,2.11"/><path class="cls-1" d="M43.38,46a2.67,2.67,0,0,0,1,1.37"/><path class="cls-1" d="M40.75,47.91a2.49,2.49,0,0,1,.88,2"/><path class="cls-1" d="M37.3,50.73,38,52.22"/><path class="cls-1" d="M27.42,55.21l.1-.75"/><path class="cls-1" d="M21.29,55a3,3,0,0,1,1-1.24"/><path class="cls-1" d="M21.29,53.15c.23,0,.23-.43,0-.44L18.91,54.1l.26-.4"/><path class="cls-1" d="M17.94,52l-3,1.23.85-.61"/><path class="cls-1" d="M13.45,50.93l2-1.21"/><path class="cls-1" d="M10.73,45.37l1.39-1"/><path class="cls-1" d="M9.11,42.47,11,41.9"/><path class="cls-1" d="M7.88,39.85l-.37-.25a3.77,3.77,0,0,1,2.37.47"/><path class="cls-1" d="M8.3,37.92,8,37.56A4,4,0,0,0,10,38"/><path class="cls-1" d="M8,34.8a4,4,0,0,1,2.1.44"/><path class="cls-1" d="M9.89,33.45l2,.58"/><path class="cls-1" d="M10.88,31.61l1.24.63"/><path class="cls-1" d="M11.35,28.67l1.11,1.24"/><path class="cls-1" d="M12.7,26.59l1.74,1.32-.22-.37"/><path class="cls-1" d="M21,21.07l.24-.23A1.43,1.43,0,0,0,22,22"/><path class="cls-1" d="M43.14,43.65a5.56,5.56,0,0,1,1.8,2.27"/><path class="cls-1" d="M39.3,55.46l-1,1.37"/><path class="cls-1" d="M40.78,57.07l-.62,1.48c.11.51.76.8.5,1.25"/><path class="cls-1" d="M14.1,58.67l.74,1.12"/><path class="cls-1" d="M15,57.31l.89.85,0-.35"/><path class="cls-1" d="M15.59,55.32A2,2,0,0,1,17.2,56"/><path class="cls-1" d="M17,54.41a1.74,1.74,0,0,1,.84,1l.25-.21"/><path class="cls-1" d="M24.15,54.08l-1,1.62"/><path class="cls-1" d="M27.37,54.46a3.11,3.11,0,0,1-.49,1.73"/><path class="cls-1" d="M30.23,54.58l.49,1.49"/><path class="cls-1" d="M33.88,53.29a11.05,11.05,0,0,0,2,1.75"/><path class="cls-1" d="M36.45,52.3A3.06,3.06,0,0,1,38,53.63"/><path class="cls-1" d="M39.67,50.85l1,1.36"/><path class="cls-1" d="M42,48.58a3.46,3.46,0,0,1,1.58,1.3"/><path class="cls-1" d="M10.22,16.56l2.14-1.21"/><path class="cls-1" d="M10.22,15.35l2.37-1.28-.32.07"/><path class="cls-1" d="M11.25,18.7a21.19,21.19,0,0,1,3.16-2.15"/><path class="cls-1" d="M11.07,17.5l1.4-.82"/><path class="cls-1" d="M13.56,18.78l2.7-1.86"/><path class="cls-1" d="M10.87,13.39l2.7-.56"/><path class="cls-1" d="M9.29,16.56l2.79-.75"/><path class="cls-1" d="M11,29.56l1.94,1"/><path class="cls-1" d="M9.66,31a1.44,1.44,0,0,1,.84.56"/><path class="cls-1" d="M8.92,32.75a2.7,2.7,0,0,0,1.86.55"/><path class="cls-1" d="M12.08,28a4.48,4.48,0,0,0,1.86.84"/><path class="cls-1" d="M18.61,22.41,19,23.53"/><path class="cls-1" d="M24.82,19.82A1.79,1.79,0,0,1,25,21.5"/><path class="cls-1" d="M30.61,19.45l-1.58,2"/><path class="cls-1" d="M26.05,20.27a2,2,0,0,1,.36,1.22"/><path class="cls-1" d="M40.18,26.05l2.33-.56"/><path class="cls-1" d="M42.24,27.84l2.69-.68"/><path class="cls-1" d="M11.26,46.9l-.19.42,2-.9"/><path class="cls-1" d="M11.43,48.19v.25a9.65,9.65,0,0,0,2.51-1.09"/><path class="cls-1" d="M13.54,50.63l2.61-1.37"/><path class="cls-1" d="M9.33,44.88a5.37,5.37,0,0,1,2.75-1.3"/><path class="cls-1" d="M40.77,46.32l2,1.44"/><path class="cls-1" d="M44.92,36.48a2.44,2.44,0,0,0,2,1"/><path class="cls-1" d="M44.74,40.82l2,.21"/><path class="cls-1" d="M45.13,38.29l2.19.6"/><path class="cls-1" d="M42.5,31.41,46,30.13"/><path class="cls-1" d="M32.39,20.48l.13-.28a5.83,5.83,0,0,0-.61,2.59"/><path class="cls-1" d="M25.74,53.41l-.42,2.42"/><path class="cls-1" d="M28.34,54.5l.4,1.14"/><path class="cls-1" d="M32.29,53.6A1.26,1.26,0,0,0,32.72,55"/><path class="cls-1" d="M39.62,49a2.07,2.07,0,0,0,1.12,1"/><path class="cls-1" d="M17.84,53.2,20.16,52"/><path class="cls-1" d="M15.66,50.81a4.35,4.35,0,0,1,1.91-.65"/><path class="cls-1" d="M9,40.93l2.14-.26"/><path class="cls-1" d="M37.3,23.72l-.65.37"/><path class="cls-1" d="M44,42.67a4.86,4.86,0,0,0,1.42,1.47"/><path class="cls-1" d="M44.55,33.56l2-.44"/><path class="cls-1" d="M10,36.48l-1.39-.75"/><path class="cls-1" d="M14.73,24.12a1.36,1.36,0,0,0,.62.61"/><path class="cls-1" d="M32.3,14.63a16.59,16.59,0,0,1,4.45.09"/><path class="cls-1" d="M32.71,13.44a21.09,21.09,0,0,1,6.37.84"/><path class="cls-1" d="M34.5,12l-.37,0,2.75.57"/><path class="cls-1" d="M35.44,11l3.74,1"/><path class="cls-1" d="M37.21,10.39l2,.52"/><path class="cls-1" d="M31.87,15.6c1.53,0,3.06,0,4.59.08"/><path class="cls-1" d="M11.17,20.32a16.35,16.35,0,0,1,2.49-1.21"/><path class="cls-1" d="M27.43,22.51c7.93-.19,14.19,5.25,15.87,12.93A12.39,12.39,0,0,1,42,43.31c-1.53,3.22-3.43,6.14-6.56,8a13.46,13.46,0,0,1-10.38,1.34c-4.83-1.14-9-3.4-11.74-7.7A14.59,14.59,0,0,1,15,27.69c3.1-3.55,7.11-4.91,11.59-5.35"/><path class="cls-1" d="M14.64,27.35a1.33,1.33,0,0,1-.75-.94"/><path class="cls-2" d="M27.56,32.72l.43-.49a8.4,8.4,0,0,1,1.83-1.64,2.82,2.82,0,0,1,1-.41,1.56,1.56,0,0,1,1.67.85,1.88,1.88,0,0,1-.61,2.51,5.49,5.49,0,0,1-1.64.73.33.33,0,0,0-.16.07h4.17a.93.93,0,0,1,1,1V38H28.54V34.64H26.69V38H20V35.34a.93.93,0,0,1,1-1h3.81a.92.92,0,0,0,.28,0l-.5-.15a4.35,4.35,0,0,1-1.3-.63,1.89,1.89,0,0,1-.64-2.46,1.58,1.58,0,0,1,2-.84,4.19,4.19,0,0,1,1.6,1c.45.43.87.91,1.3,1.36Zm-.62,1.07c0-.17.15-.29,0-.45a12.33,12.33,0,0,0-1.58-1.65,3.24,3.24,0,0,0-1-.64.76.76,0,0,0-.88.22,1,1,0,0,0,0,1.35,2.41,2.41,0,0,0,.61.45A8.25,8.25,0,0,0,26.94,33.79Zm1.25,0h.09a8.65,8.65,0,0,0,2-.41,5.09,5.09,0,0,0,1.08-.51,1,1,0,0,0,.4-1.38.72.72,0,0,0-.84-.45,2,2,0,0,0-.58.23,9.31,9.31,0,0,0-2.22,2.12.23.23,0,0,0,0,.12C28.13,33.58,28.16,33.67,28.19,33.77Z"/><path class="cls-2" d="M26.68,39.26v7h-4.8a.92.92,0,0,1-1-1v-6Z"/><path class="cls-2" d="M34.34,39.26c0,.07,0,.13,0,.19v5.86a.92.92,0,0,1-1,1h-4.8v-7Z"/><path class="cls-3" d="M28.63,33.1c.44-.68,1.07-2,2.05-2,1.06.81,1.23,1.42.53,1.81a4.78,4.78,0,0,1-.59.41,3.8,3.8,0,0,1-1.68.49c-1.32.15-2.5.2-3.45,1.24-.33.35.2.88.53.53,1.25-1.36,3.12-.7,4.65-1.43,1-.46,2.24-1.36,2-2.6a1.64,1.64,0,0,0-2-1.2c-1.36.27-2,1.29-2.66,2.37-.26.41.39.78.65.38Z"/><path class="cls-3" d="M27.89,32.76c-1.31-.32-2.07-2-3.5-2A1.33,1.33,0,0,0,23,32.35c.18.95,1.13,1.4,2,1.65a11.46,11.46,0,0,0,1.84.34,5.57,5.57,0,0,1,2.88,1.24c.39.28.77-.37.38-.65a7.14,7.14,0,0,0-1.85-1.12c-.9-.31-1.91-.23-2.84-.47l-.57-.17c-.93-.19-1-.52-.34-1,.26-.66.6-.7,1-.13l.5.41a4.46,4.46,0,0,0,1.69,1,.38.38,0,0,0,.2-.73Z"/></g></g></svg>